<svg xmlns="http://www.w3.org/2000/svg" viewBox="10.1 -1048.9 636.8 1077.8"><g transform="scale(1 -1)"><path fill="currentColor" d="M321 1009H347Q350 980 356.0 958.0Q362 936 372 919Q389 892 413.0 872.5Q437 853 468 822Q498 793 527.0 757.5Q556 722 575.5 677.0Q595 632 595 576Q595 531 581 478Q607 440 607 368Q607 320 594.0 272.5Q581 225 556 191H540Q587 283 587 351Q587 406 556 452Q536 482 511.5 505.5Q487 529 449.0 554.0Q411 579 347 611V171Q347 128 318.5 91.5Q290 55 245.0 33.0Q200 11 152 11Q110 11 80.0 30.0Q50 49 50 89Q50 137 79.0 176.0Q108 215 154.0 238.5Q200 262 249 262Q294 262 321 238ZM353 823Q353 771 376 727Q384 713 408.5 682.0Q433 651 467 619Q505 583 534.0 550.0Q563 517 568 505Q570 513 571.0 523.5Q572 534 572 547Q572 623 523.0 690.0Q474 757 353 823Z"/></g></svg>
