<svg xmlns="http://www.w3.org/2000/svg" viewBox="34.9 -702.1 358.2 407.2"><g transform="scale(1 -1)"><path fill="currentColor" d="M378 374Q351 345 315.0 327.5Q279 310 239 310Q189 310 146.0 337.0Q103 364 76.5 407.0Q50 450 50 499Q50 548 76.0 591.0Q102 634 145.0 660.5Q188 687 239 687Q279 687 315.0 670.5Q351 654 377 625L349 599Q329 622 300.0 635.5Q271 649 239 649Q199 649 165.0 628.0Q131 607 110.0 573.0Q89 539 89 499Q89 459 110.0 425.0Q131 391 165.0 370.0Q199 349 239 349Q271 349 299.0 362.5Q327 376 349 400ZM239 535Q253 535 263.5 524.5Q274 514 274 500Q274 486 263.5 475.5Q253 465 239 465Q226 465 215.0 475.5Q204 486 204 500Q204 514 215.0 524.5Q226 535 239 535Z"/></g></svg>
