<svg xmlns="http://www.w3.org/2000/svg" viewBox="29.5 -408.5 554.0 532.0"><g transform="scale(1 -1)"><path fill="currentColor" d="M186 388 203 370Q150 327 130.0 270.5Q110 214 110 143Q110 72 130.0 15.0Q150 -42 203 -85L186 -103Q136 -71 106.0 -38.0Q76 -5 63.0 38.5Q50 82 50 143Q50 203 62.5 245.5Q75 288 105.0 321.5Q135 355 186 388ZM427 -103 410 -85Q463 -42 483.0 15.0Q503 72 503 143Q503 214 483.0 270.5Q463 327 410 370L427 388Q478 356 507.5 322.5Q537 289 550.0 246.5Q563 204 563 143Q563 82 549.5 38.5Q536 -5 506.5 -38.5Q477 -72 427 -103Z"/></g></svg>
