<svg xmlns="http://www.w3.org/2000/svg" viewBox="28.4 -789.6 421.1 582.1"><g transform="scale(1 -1)"><path fill="currentColor" d="M223 229V310Q177 314 137.5 341.5Q98 369 74.0 410.5Q50 452 50 499Q50 545 73.5 586.5Q97 628 136.5 655.0Q176 682 223 686V768H255V686Q302 682 341.5 655.0Q381 628 404.5 587.0Q428 546 428 500Q428 453 403.5 411.0Q379 369 340.0 341.5Q301 314 255 310V229ZM223 350V648Q188 644 157.5 623.0Q127 602 108.0 569.5Q89 537 89 499Q89 462 107.0 429.5Q125 397 155.5 375.5Q186 354 223 350ZM255 648V350Q291 354 321.5 375.5Q352 397 370.5 429.5Q389 462 389 500Q389 538 370.0 570.0Q351 602 320.5 623.0Q290 644 255 648Z"/></g></svg>
