<svg xmlns="http://www.w3.org/2000/svg" viewBox="29.7 -774.3 483.6 548.6"><g transform="scale(1 -1)"><path fill="currentColor" d="M255 246V303Q194 311 155.5 358.0Q117 405 108 484H50V516H108Q117 594 154.0 641.0Q191 688 255 697V754H288V697Q353 688 389.5 640.5Q426 593 435 516H493V484H435Q426 405 388.0 358.0Q350 311 288 303V246ZM255 516V668Q228 667 212 646Q198 627 192.5 600.0Q187 573 187 516ZM288 516H356Q356 545 355.0 566.0Q354 587 351 600Q345 626 331.0 646.5Q317 667 288 668ZM288 484V332Q317 334 331 354Q345 374 350.5 400.5Q356 427 356 484ZM255 484H187Q187 456 188.0 435.5Q189 415 192 402Q198 376 212.0 354.5Q226 333 255 332Z"/></g></svg>
