<svg xmlns="http://www.w3.org/2000/svg" viewBox="24.3 -659.7 694.4 317.4"><g transform="scale(1 -1)"><path fill="currentColor" d="M366 438Q326 404 284.5 386.0Q243 368 195 368Q130 368 90.0 404.0Q50 440 50 495Q50 534 67.5 565.0Q85 596 115.0 614.0Q145 632 183 632Q217 632 239.0 618.5Q261 605 261 585Q261 567 248.0 555.5Q235 544 218 544Q208 544 199.0 548.0Q190 552 181 558L163 569Q156 573 146 573Q121 573 107.0 554.5Q93 536 93 513Q93 485 111.5 461.0Q130 437 167 437Q191 437 236.0 462.5Q281 488 339 533L378 564Q420 597 460.0 615.5Q500 634 548 634Q592 634 624.5 614.5Q657 595 675.0 565.0Q693 535 693 501Q693 444 658.5 407.0Q624 370 560 370Q529 370 505.5 382.0Q482 394 482 417Q482 435 495.5 446.5Q509 458 529 458Q547 458 565 444Q586 429 597 429Q623 429 636.5 450.0Q650 471 650 494Q650 525 630.5 544.5Q611 564 576 564Q542 564 501.0 540.0Q460 516 404 469Z"/></g></svg>
