<svg xmlns="http://www.w3.org/2000/svg" viewBox="18.1 -722.9 860.8 437.8"><g transform="scale(1 -1)"><path fill="currentColor" d="M815 689 795 569H771Q765 656 698 656Q657 656 623.5 627.5Q590 599 570.0 554.0Q550 509 550 460Q550 414 570.0 383.0Q590 352 626 352Q659 352 691.5 371.0Q724 390 753 424L771 405Q708 317 616 317Q576 317 544.5 336.5Q513 356 494.5 390.0Q476 424 476 467Q476 508 494.0 547.5Q512 587 542.5 619.5Q573 652 612.5 671.5Q652 691 695 691Q707 691 720.5 690.0Q734 689 748 685Q773 678 776 678Q788 678 794 689ZM50 325V348Q70 348 79.5 358.0Q89 368 94 388L157 615Q161 628 161 640Q161 647 155 650Q151 652 143.5 654.0Q136 656 122 657V680H256Q433 680 433 533Q433 473 401.0 426.0Q369 379 314.0 352.0Q259 325 189 325ZM162 383Q159 371 159 367Q159 356 185 356Q272 356 315.0 407.5Q358 459 358 541Q358 649 265 649Q255 649 245.5 646.5Q236 644 231 642ZM425 396Q437 396 448.0 386.0Q459 376 459 361Q459 345 449.0 335.0Q439 325 425 325Q409 325 399.0 335.0Q389 345 389 361Q389 376 400.5 386.0Q412 396 425 396ZM812 392Q829 392 838.0 382.5Q847 373 847 357Q847 343 837.5 333.0Q828 323 812 323Q798 323 788.0 333.0Q778 343 778 357Q778 372 788.0 382.0Q798 392 812 392Z"/></g></svg>
