<svg xmlns="http://www.w3.org/2000/svg" viewBox="15.3 -716.7 937.4 432.4"><g transform="scale(1 -1)"><path fill="currentColor" d="M250 494 253 682Q310 670 360 670Q403 670 451 682Q444 639 417.5 625.0Q391 611 344 611Q327 611 311.5 613.5Q296 616 279 620L277 527Q311 558 358 558Q409 558 437.5 527.0Q466 496 466 442Q466 388 432.0 353.5Q398 319 341 319Q315 319 291.0 329.0Q267 339 252.0 357.0Q237 375 237 399Q237 424 250.5 437.5Q264 451 282 451Q302 451 314.0 438.5Q326 426 326 406Q326 393 316 382Q305 369 305 366Q305 358 315.0 352.5Q325 347 341 347Q406 347 406 443Q406 488 385.0 509.5Q364 531 338 531Q320 531 302.0 521.5Q284 512 270 494ZM58 326V352Q89 352 99.5 363.0Q110 374 110 405V628L65 593L50 613L119 676H160V402Q160 376 174.5 364.0Q189 352 212 352V326ZM844 494Q825 469 805.5 451.5Q786 434 766 434Q736 434 730 461Q709 434 683 434Q670 434 661.0 440.5Q652 447 652 461Q652 465 653.0 470.5Q654 476 656 482L680 552Q683 561 683 566Q683 575 673 575Q653 575 645 552L607 439H569L607 552Q610 563 610 566Q610 575 600 575Q580 575 572 550L532 439H493L535 555Q537 560 537.5 563.5Q538 567 538 568Q538 575 532 575Q524 575 512 560Q506 552 500.0 540.5Q494 529 489 514H472Q484 552 505.5 577.5Q527 603 554 603Q579 603 579 580Q587 590 600.5 596.5Q614 603 625 603Q649 603 649 578Q658 589 671.5 596.0Q685 603 699 603Q724 603 724 582Q724 578 722.0 570.5Q720 563 718 556L690 471Q689 468 689 465Q689 456 696 456Q704 456 712.0 465.0Q720 474 725.5 484.5Q731 495 731 500Q734 513 748 537Q763 561 792.0 582.0Q821 603 850 603Q870 603 874 591Q875 594 877 602Q877 607 886 607H905Q913 607 913 600Q913 593 905 571L868 463Q875 468 887.0 480.0Q899 492 906 502L918 492Q910 482 897.0 468.0Q884 454 870.5 444.0Q857 434 847 434Q841 434 835.5 437.5Q830 441 830 450Q830 453 831.5 457.5Q833 462 834 466ZM849 584Q834 584 815.0 566.0Q796 548 782.0 523.5Q768 499 768 479Q768 469 771 464Q773 461 779 461Q790 461 804.5 474.0Q819 487 832.5 505.5Q846 524 854.5 542.5Q863 561 863 572Q863 576 860.0 580.0Q857 584 849 584Z"/></g></svg>
