<svg xmlns="http://www.w3.org/2000/svg" viewBox="19.1 -802.9 685.8 833.8"><g transform="scale(1 -1)"><path fill="currentColor" d="M298 0H272V761Q292 765 317.5 768.5Q343 772 371 772Q394 772 416.5 769.0Q439 766 465 761V583Q450 586 429.0 588.5Q408 591 371 591Q351 591 336.5 590.0Q322 589 298 585ZM243 381Q219 385 201.5 386.0Q184 387 146 387Q116 387 94.5 385.0Q73 383 50 379V557Q76 562 100.0 565.0Q124 568 146 568Q170 568 193.0 565.0Q216 562 243 557ZM674 381Q670 382 652.0 383.0Q634 384 613.0 385.5Q592 387 577 387Q551 387 530.5 385.5Q510 384 481 379V557Q510 562 532.5 565.0Q555 568 577 568Q606 568 629.5 565.0Q653 562 674 557ZM243 161Q237 162 207.0 164.5Q177 167 146 167Q115 167 95.5 165.5Q76 164 50 159V337Q61 339 88.0 343.5Q115 348 146 348Q174 348 194.0 345.5Q214 343 243 337Z"/></g></svg>
