<svg xmlns="http://www.w3.org/2000/svg" viewBox="8.8 -1050.2 511.4 1112.4"><g transform="scale(1 -1)"><path fill="currentColor" d="M50 133 193 276V1009H219Q225 956 240 927Q257 897 281.0 876.0Q305 855 336 826Q367 797 397.0 760.5Q427 724 447.0 679.0Q467 634 467 576Q467 531 453 478Q479 440 479 368Q479 320 466.0 272.5Q453 225 428 191H412Q459 283 459 351Q459 413 419 465Q379 517 331.5 547.0Q284 577 219 611V276L359 135L203 -21ZM225 823Q225 798 231.5 774.0Q238 750 249 727Q257 712 282.0 680.0Q307 648 343 614Q379 580 407.0 548.0Q435 516 440 505Q442 513 443.0 523.5Q444 534 444 547Q444 598 421.5 645.5Q399 693 349 738Q302 781 225 823Z"/></g></svg>
