<svg xmlns="http://www.w3.org/2000/svg" viewBox="34.9 -702.1 408.2 407.2"><g transform="scale(1 -1)"><path fill="currentColor" d="M428 500Q428 451 402.0 407.5Q376 364 333.0 337.0Q290 310 239 310Q189 310 146.0 337.0Q103 364 76.5 407.0Q50 450 50 499Q50 548 76.0 591.0Q102 634 145.0 660.5Q188 687 239 687Q290 687 333.0 660.5Q376 634 402.0 591.5Q428 549 428 500ZM239 649Q199 649 165.0 628.0Q131 607 110.0 573.0Q89 539 89 499Q89 459 110.0 425.0Q131 391 165.0 370.0Q199 349 239 349Q278 349 312.0 369.5Q346 390 367.5 424.5Q389 459 389 500Q389 540 368.0 574.0Q347 608 313.0 628.5Q279 649 239 649ZM274 500Q274 486 263.5 475.5Q253 465 239 465Q226 465 215.0 475.5Q204 486 204 500Q204 514 215.0 524.5Q226 535 239 535Q253 535 263.5 524.5Q274 514 274 500Z"/></g></svg>
