<svg xmlns="http://www.w3.org/2000/svg" viewBox="25.5 -325.5 662.0 381.0"><g transform="scale(1 -1)"><path fill="currentColor" d="M564 -31V128Q562 90 532.5 63.0Q503 36 457.0 22.0Q411 8 359 8Q304 8 256.5 23.0Q209 38 180.0 66.5Q151 95 150 135V-31H114V301H150V141Q152 178 180.5 204.5Q209 231 254.5 245.5Q300 260 353 260Q410 260 457.5 245.0Q505 230 534.0 202.0Q563 174 564 135V301H597V-31ZM628 -31V301H663V-31ZM50 -31V301H85V-31ZM380 28Q414 28 426.5 53.0Q439 78 439 112Q439 146 424.5 175.0Q410 204 386.0 222.0Q362 240 332 240Q298 240 286.5 215.0Q275 190 275 156Q275 122 289.0 93.0Q303 64 327.0 46.0Q351 28 380 28Z"/></g></svg>
