<svg xmlns="http://www.w3.org/2000/svg" viewBox="-60.0 -631.0 322.9 291.9"><g transform="scale(1 -1)"><path fill="currentColor" d="M61 619H251V595L38 422Q59 431 74 431Q82 431 88.0 429.0Q94 427 108 421Q119 417 127.5 413.5Q136 410 141 410Q148 410 153.0 415.5Q158 421 158 429Q148 431 140.0 436.5Q132 442 132 453Q132 466 141.0 475.0Q150 484 163 484Q181 484 189.5 470.0Q198 456 198 435Q198 401 173.5 376.0Q149 351 108 351Q84 351 52 366Q19 381 6 381Q-7 381 -24 367H-48V383L171 562H114Q84 562 73 554Q66 550 61.5 543.5Q57 537 54 531H30Z"/></g></svg>
