<svg xmlns="http://www.w3.org/2000/svg" viewBox="-38.4 -1192.4 364.9 1037.9"><g transform="scale(1 -1)"><path fill="currentColor" d="M0 1154H26Q29 1117 42.5 1089.0Q56 1061 84.5 1031.0Q113 1001 160 956Q207 912 231.5 872.0Q256 832 265.0 794.0Q274 756 274 716Q274 694 271.5 672.0Q269 650 262 628Q269 609 271.5 589.0Q274 569 274 548Q274 512 264 472Q288 441 288 374Q288 328 275.5 279.5Q263 231 237 193H221Q266 286 266 355Q266 372 263.5 388.0Q261 404 255 418Q235 468 194.0 506.5Q153 545 103 574Q66 596 44.5 605.5Q23 615 0 624ZM30 972Q30 935 47 903Q59 881 82.5 857.0Q106 833 135 806Q167 778 197.0 743.0Q227 708 247 665Q250 683 250 699Q250 762 217 813Q199 841 176.0 863.5Q153 886 126 906Q104 923 79.5 940.0Q55 957 30 972ZM28 798Q31 750 55.0 712.5Q79 675 115 641L191 570Q212 551 226.0 534.0Q240 517 247 503Q248 506 248 527Q248 678 28 798Z"/></g></svg>
