<svg xmlns="http://www.w3.org/2000/svg" viewBox="24.3 -745.7 694.4 493.4"><g transform="scale(1 -1)"><path fill="currentColor" d="M384 278H358V451L339 467Q282 514 241.5 538.0Q201 562 167 562Q131 562 112.0 541.5Q93 521 93 492Q93 469 106.5 448.0Q120 427 146 427Q156 427 178 441Q189 448 198.0 452.0Q207 456 214 456Q234 456 247.5 444.5Q261 433 261 415Q261 392 238.0 380.0Q215 368 183 368Q118 368 84.0 406.0Q50 444 50 499Q50 533 68.0 563.5Q86 594 118.5 613.0Q151 632 195 632Q240 632 279.0 614.5Q318 597 358 567V720H384V547L404 531Q461 485 506.5 460.0Q552 435 576 435Q613 435 631.5 459.0Q650 483 650 511Q650 534 636.0 552.5Q622 571 597 571Q585 571 563 557Q552 550 542.5 546.0Q533 542 525 542Q508 542 495.0 553.5Q482 565 482 583Q482 603 504.0 616.5Q526 630 560 630Q598 630 628.0 612.0Q658 594 675.5 563.0Q693 532 693 493Q693 438 653.0 402.0Q613 366 548 366Q503 366 462.5 382.5Q422 399 384 430Z"/></g></svg>
