<svg xmlns="http://www.w3.org/2000/svg" viewBox="-158.4 -804.4 562.7 630.7"><g transform="scale(1 -1)"><path fill="currentColor" d="M110 619Q128 664 159.0 701.0Q190 738 228.5 759.5Q267 781 307 781Q348 781 364.5 762.5Q381 744 381 717Q381 694 365.0 675.0Q349 656 329 656Q292 656 292 692Q292 700 295.0 708.5Q298 717 308 724Q317 731 328.0 735.5Q339 740 339 742Q339 745 331 748Q327 750 322.0 751.0Q317 752 312 752Q278 752 250.0 720.0Q222 688 205 619H292V586H196Q171 489 142.0 415.5Q113 342 78 294Q9 197 -63 197Q-99 197 -117.0 218.0Q-135 239 -135 268Q-135 300 -120.0 316.0Q-105 332 -82 332Q-62 332 -50.5 319.5Q-39 307 -39 289Q-39 280 -41.0 273.0Q-43 266 -50 258Q-57 251 -63.0 246.0Q-69 241 -74 238Q-78 236 -78 231Q-78 226 -63 226Q-32 226 -8 264Q4 283 17.0 314.5Q30 346 40 384L74 504Q90 564 99 586H31V619Z"/></g></svg>
