<svg xmlns="http://www.w3.org/2000/svg" viewBox="12.8 -747.2 1004.4 743.4"><g transform="scale(1 -1)"><path fill="currentColor" d="M243 43Q236 44 206.5 46.5Q177 49 146 49Q115 49 95.5 47.5Q76 46 50 41V219Q76 224 100.0 227.0Q124 230 146 230Q187 230 217 224V710Q280 631 340.5 567.5Q401 504 459 454Q536 389 609.0 341.0Q682 293 765.5 259.0Q849 225 954 200V523Q930 527 915.5 528.0Q901 529 881 529Q845 529 824.0 526.5Q803 524 787 521V699Q815 704 837.0 707.0Q859 710 881 710Q909 710 934.0 706.5Q959 703 980 699V43Q809 77 676.0 134.0Q543 191 437.5 274.5Q332 358 243 470Z"/></g></svg>
