<svg xmlns="http://www.w3.org/2000/svg" viewBox="-2.8 -1382.8 664.5 1424.5"><g transform="scale(1 -1)"><path fill="currentColor" d="M583 628Q595 591 595 548Q595 531 592.5 512.0Q590 493 585 472Q609 441 609 374Q609 328 596.5 279.5Q584 231 558 193H542Q587 286 587 355Q587 418 551.5 466.5Q516 515 446 559L347 622V171Q347 129 318.5 92.5Q290 56 245.0 33.5Q200 11 152 11Q104 11 77.0 31.0Q50 51 50 99Q50 131 68.0 160.0Q86 189 115.0 212.0Q144 235 178.5 248.5Q213 262 247 262Q271 262 290.0 256.0Q309 250 321 236V1330H347Q350 1295 362.0 1268.5Q374 1242 401.5 1212.0Q429 1182 478 1135Q527 1089 552.0 1048.5Q577 1008 586.0 970.0Q595 932 595 892Q595 865 592.0 845.0Q589 825 582 805Q588 783 591.5 761.0Q595 739 595 716Q595 672 583 628ZM351 1148Q351 1083 407 1030Q454 985 484.5 953.5Q515 922 535.0 896.0Q555 870 568 841Q571 859 571 875Q571 924 552.5 963.0Q534 1002 502 1034Q471 1066 432.0 1093.5Q393 1121 351 1148ZM351 972Q351 935 368 903Q379 882 402.0 859.0Q425 836 450 813Q483 783 515.0 746.5Q547 710 568 665Q571 683 571 699Q571 731 562.5 759.5Q554 788 538 813Q519 845 492.0 869.5Q465 894 434 916Q414 930 393.0 944.5Q372 959 351 972ZM349 798Q352 750 376.0 712.5Q400 675 436 641L512 570Q533 551 547.0 534.0Q561 517 568 503Q569 511 569.0 516.0Q569 521 569 527Q569 678 349 798Z"/></g></svg>
