<svg xmlns="http://www.w3.org/2000/svg" viewBox="25.8 -706.2 653.4 411.4"><g transform="scale(1 -1)"><path fill="currentColor" d="M120 501Q61 528 61 584Q61 625 95.5 653.5Q130 682 176 682Q224 682 256.0 658.5Q288 635 288 593Q288 567 274.0 552.0Q260 537 226 520Q257 508 278.5 485.0Q300 462 300 428Q300 396 282.5 371.5Q265 347 236.0 333.0Q207 319 173 319Q121 319 85.5 347.0Q50 375 50 418Q50 473 120 501ZM111 601Q111 575 134.0 554.5Q157 534 188 534Q205 534 223.0 552.5Q241 571 241 593Q241 623 221.5 638.5Q202 654 176 654Q148 654 129.5 639.0Q111 624 111 601ZM581 494Q562 469 542.0 451.5Q522 434 503 434Q484 434 474.5 445.5Q465 457 465 476Q465 506 484.0 535.5Q503 565 531.5 584.0Q560 603 587 603Q605 603 611 591Q612 593 612.5 595.5Q613 598 614 602Q616 607 623 607H642Q650 607 650 600Q650 593 642 571L605 463Q612 468 623.5 480.0Q635 492 643 502L655 492Q647 482 634.0 468.0Q621 454 607.5 444.0Q594 434 584 434Q579 434 573.0 437.5Q567 441 567 450Q567 457 571 466ZM354 561Q358 571 358 572Q358 574 355 574Q351 574 341.0 564.0Q331 554 323 543L311 553Q326 576 343.5 589.5Q361 603 377 603Q386 603 391.0 597.0Q396 591 396 583Q396 579 395.0 574.0Q394 569 391 562L361 486Q357 477 357 468Q357 455 368 455Q385 455 402.5 472.5Q420 490 432.5 513.5Q445 537 445 553Q433 571 433 583Q433 589 437.0 597.0Q441 605 452 605Q460 605 466.5 598.0Q473 591 473 575Q473 545 454.5 512.0Q436 479 409.5 456.5Q383 434 358 434Q320 434 320 468Q320 476 323.0 485.0Q326 494 329 501ZM586 584Q571 584 552.0 566.0Q533 548 519.0 523.5Q505 499 505 479Q505 470 507 464Q510 461 517 461Q528 461 542.0 474.0Q556 487 569.5 506.0Q583 525 591.5 543.5Q600 562 600 572Q600 576 597.5 580.0Q595 584 586 584ZM248 414Q248 435 234.0 452.0Q220 469 200.0 479.0Q180 489 161 489Q152 489 137.5 478.0Q123 467 112.0 449.5Q101 432 101 412Q101 380 121.0 363.5Q141 347 173 347Q205 347 226.5 365.0Q248 383 248 414Z"/></g></svg>
