<svg xmlns="http://www.w3.org/2000/svg" viewBox="18.8 -1420.2 304.5 843.5"><g transform="scale(1 -1)"><path fill="currentColor" d="M159 1389H183V848Q212 846 237.0 829.0Q262 812 277.0 786.0Q292 760 292 730Q292 698 275.0 670.0Q258 642 230.5 625.0Q203 608 171 608Q140 608 112.0 625.0Q84 642 67.0 670.0Q50 698 50 729Q50 760 65.0 786.0Q80 812 105.0 829.0Q130 846 159 848ZM267 730Q267 765 242.5 792.5Q218 820 183 824V711H159V824Q123 819 99.0 791.5Q75 764 75 729Q75 704 89.0 682.0Q103 660 125.0 646.5Q147 633 171 633Q196 633 218.0 646.5Q240 660 253.5 682.0Q267 704 267 730Z"/></g></svg>
