<svg xmlns="http://www.w3.org/2000/svg" viewBox="33.4 -276.6 447.1 285.1"><g transform="scale(1 -1)"><path fill="currentColor" d="M50 135Q50 172 77.0 200.0Q104 228 150.5 244.0Q197 260 253 260Q310 260 358.0 244.5Q406 229 435.0 201.0Q464 173 464 135Q464 96 436.0 67.5Q408 39 361.5 23.5Q315 8 259 8Q203 8 155.5 23.0Q108 38 79.0 66.5Q50 95 50 135ZM280 28Q314 28 326.5 53.0Q339 78 339 112Q339 147 324.5 176.0Q310 205 286.0 222.5Q262 240 232 240Q198 240 186.5 215.0Q175 190 175 156Q175 122 189.0 93.0Q203 64 226.5 46.0Q250 28 280 28Z"/></g></svg>
