<svg xmlns="http://www.w3.org/2000/svg" viewBox="23.0 -878.0 750.0 756.0"><g transform="scale(1 -1)"><path fill="currentColor" d="M98 150Q87 150 73.5 152.5Q60 155 51 158V171Q82 176 103.5 188.0Q125 200 125 222Q125 230 124.0 240.0Q123 250 121 259Q116 281 116 300Q116 324 134.0 338.5Q152 353 183 353Q192 353 203.5 353.0Q215 353 220 352Q226 351 232.0 351.0Q238 351 245 351H253Q267 351 278.5 358.0Q290 365 290 383Q290 405 286 422Q281 445 281 465Q281 485 296.0 501.0Q311 517 351 517H414Q418 517 427.5 518.5Q437 520 446.0 526.5Q455 533 455 548Q455 562 454.0 573.5Q453 585 451 594Q450 601 448.5 612.0Q447 623 447 631Q447 654 462.5 667.5Q478 681 502 681H544Q621 681 621 715Q621 734 617 754Q615 765 614.0 775.0Q613 785 613 795Q613 850 694 850Q714 850 724.0 848.0Q734 846 745 842V827Q713 827 694.0 813.5Q675 800 675 776Q675 765 675.5 754.5Q676 744 677 735Q679 724 679.5 715.5Q680 707 680 697Q680 678 666.0 664.5Q652 651 631 651Q620 651 608.5 651.5Q597 652 587 652H548Q531 652 520.0 640.0Q509 628 509 611Q509 603 509.5 595.0Q510 587 511 579Q514 558 514 532Q514 512 500.0 498.0Q486 484 464 484H455Q446 484 438.0 484.5Q430 485 422 486Q415 487 408.0 487.0Q401 487 396 487Q363 487 353.5 474.0Q344 461 344 445Q344 423 347 405Q349 395 349.0 386.0Q349 377 349 366Q349 348 335.0 333.0Q321 318 284 318Q277 318 269.5 318.5Q262 319 255 320Q248 321 242.0 321.0Q236 321 230 321Q199 321 188.5 309.0Q178 297 178 280Q178 257 181 239Q183 229 183.0 220.0Q183 211 183 200Q183 173 161.5 161.5Q140 150 98 150Z"/></g></svg>
