<svg xmlns="http://www.w3.org/2000/svg" viewBox="12.0 -652.0 303.0 675.0"><g transform="scale(1 -1)"><path fill="currentColor" d="M244 358Q244 243 259.0 166.5Q274 90 290 47L218 2Q209 54 203.5 97.0Q198 140 195.5 182.0Q193 224 193 271Q193 296 194.0 320.5Q195 345 197 369H184Q110 369 38 378Q37 382 37.0 386.0Q37 390 37 394Q37 418 39.5 450.5Q42 483 46.5 515.5Q51 548 56 572Q98 562 140.0 556.5Q182 551 224 546Q229 572 235.0 592.5Q241 613 245 627L276 622Q270 596 262.5 554.0Q255 512 249.5 461.5Q244 411 244 358Z"/></g></svg>
