<svg xmlns="http://www.w3.org/2000/svg" viewBox="16.0 -956.0 490.0 918.0"><g transform="scale(1 -1)"><path fill="currentColor" d="M269 72H239V246Q183 255 140.5 293.5Q98 332 74.0 390.0Q50 448 50 514Q50 569 75.5 618.5Q101 668 144.0 703.5Q187 739 239 749V922H269V753Q274 754 282 754Q329 754 371.5 734.0Q414 714 441.0 680.5Q468 647 468 605Q468 568 443.0 542.0Q418 516 380 516Q346 516 324.0 536.5Q302 557 302 588Q302 616 318.0 634.5Q334 653 353 661Q364 666 380.0 669.0Q396 672 396 679Q396 691 381.5 701.0Q367 711 346.5 717.0Q326 723 306 723Q296 723 287.0 721.5Q278 720 269 718V282Q283 279 301 279Q351 279 392.0 324.0Q433 369 445 445H472Q468 387 442.0 341.5Q416 296 372.0 270.0Q328 244 271 244H269ZM239 294V704Q210 683 194.5 641.0Q179 599 179 510Q179 488 179.5 467.5Q180 447 181 427Q183 386 196.0 349.0Q209 312 239 294Z"/></g></svg>
