<svg xmlns="http://www.w3.org/2000/svg" viewBox="28.4 -789.6 371.1 582.1"><g transform="scale(1 -1)"><path fill="currentColor" d="M173 229V310Q138 314 106.5 331.0Q75 348 50 374L79 400Q99 379 122.5 366.0Q146 353 173 350V648Q146 644 121.0 631.5Q96 619 79 599L51 625Q101 680 173 686V768H205V686Q252 682 291.5 655.0Q331 628 354.5 587.0Q378 546 378 499Q378 452 354.0 410.0Q330 368 290.5 341.0Q251 314 205 310V229ZM205 648V350Q242 354 272.0 375.5Q302 397 320.5 429.5Q339 462 339 499Q339 537 320.0 569.5Q301 602 270.5 623.0Q240 644 205 648Z"/></g></svg>
