<svg xmlns="http://www.w3.org/2000/svg" viewBox="-24.6 -1146.6 565.2 1474.2"><g transform="scale(1 -1)"><path fill="currentColor" d="M163 -273 246 268Q230 295 213.5 322.0Q197 349 180 376Q142 436 107.5 498.0Q73 560 51.5 630.0Q30 700 30 783Q30 877 66.0 946.0Q102 1015 166.5 1053.5Q231 1092 316 1092Q402 1092 444.0 1072.0Q486 1052 486 1030Q486 1012 478.5 1004.0Q471 996 451 996Q441 996 429.5 1003.5Q418 1011 407 1020Q391 1034 366.0 1045.5Q341 1057 297 1057Q209 1057 157.0 993.5Q105 930 105 809Q105 742 124.5 681.0Q144 620 175.0 562.5Q206 505 241 447Q247 436 253.5 425.5Q260 415 266 404L342 899L374 894L291 361Q334 285 364.5 201.5Q395 118 395 17Q395 -72 365.0 -135.5Q335 -199 282.5 -233.5Q230 -268 163 -273ZM326 -5Q326 58 310.5 114.0Q295 170 270 221L199 -236Q223 -234 252.5 -212.0Q282 -190 304.0 -140.0Q326 -90 326 -5Z"/></g></svg>
