<svg xmlns="http://www.w3.org/2000/svg" viewBox="30.0 -771.0 344.1 541.1"><g transform="scale(1 -1)"><path fill="currentColor" d="M348 629 354 618 296 584Q310 564 317.5 545.0Q325 526 325 501Q325 445 282 374H273Q306 439 306 489Q306 538 277 573L200 528V332Q200 310 184.0 291.5Q168 273 145.0 261.5Q122 250 101 250Q78 250 64.0 259.5Q50 269 50 288Q50 310 65.5 329.5Q81 349 104.0 361.5Q127 374 150 374Q177 374 187 364V521L123 484L117 494L187 535V751H200Q200 695 242 648Q285 601 288 594ZM200 542 268 582Q245 604 200 616Z"/></g></svg>
