<svg xmlns="http://www.w3.org/2000/svg" viewBox="23.2 -641.8 420.6 723.6"><g transform="scale(1 -1)"><path fill="currentColor" d="M218 107Q210 95 192.5 78.0Q175 61 147 39Q92 -4 50 -55V615H79V225Q125 262 163 262Q195 262 218 242V615H249V225Q286 262 333 262Q365 262 391.0 240.5Q417 219 417 178Q417 146 398.0 119.0Q379 92 347 65L278 6Q239 -28 218 -55ZM249 12Q289 54 316.0 95.5Q343 137 343 170Q343 198 330.0 210.5Q317 223 302 223Q286 223 270.5 211.5Q255 200 249 180ZM79 12 120 59Q149 92 161.0 117.0Q173 142 173 170Q173 221 132 221Q116 221 100.5 209.5Q85 198 79 180Z"/></g></svg>
