<svg xmlns="http://www.w3.org/2000/svg" viewBox="11.0 -1026.0 222.9 1051.9"><g transform="scale(1 -1)"><path fill="currentColor" d="M136 218Q136 237 115 256Q93 276 71.5 296.0Q50 316 50 338Q50 359 71 377Q93 396 114.5 415.0Q136 434 136 454Q136 471 113 491Q89 513 69.5 531.5Q50 550 50 572Q50 600 93 631Q136 662 136 688Q136 703 124 715Q117 721 110.5 727.5Q104 734 97 741L66 771Q50 787 50 806Q50 827 71 846Q84 858 99.0 870.0Q114 882 125.0 895.0Q136 908 136 922Q136 932 134.5 940.5Q133 949 125 957Q112 972 109 977L119 987L135 977Q155 964 175.0 941.0Q195 918 195 896Q195 866 151 836Q107 806 107 790Q107 771 126 752Q139 740 155.0 725.0Q171 710 183.0 694.0Q195 678 195 662Q195 640 175 623Q163 612 147.0 600.0Q131 588 119.0 576.5Q107 565 107 555Q107 537 129 516Q152 495 173.5 473.5Q195 452 195 428Q195 399 151 369Q107 339 107 321Q107 302 130 282Q153 261 174.0 240.5Q195 220 195 194Q195 163 152 135Q109 107 109 87Q109 65 123 42Q126 37 129.5 31.5Q133 26 136 22L126 13Q119 18 100.5 31.5Q82 45 66.0 64.5Q50 84 50 104Q50 121 65.5 137.0Q81 153 91 161Q111 178 123.5 190.5Q136 203 136 218Z"/></g></svg>
