<svg xmlns="http://www.w3.org/2000/svg" viewBox="20.5 -714.5 797.0 425.0"><g transform="scale(1 -1)"><path fill="currentColor" d="M753 685 729 569H705Q705 653 650 653Q630 653 616.5 640.5Q603 628 603 609Q603 595 617.0 575.0Q631 555 657 529Q711 477 711 426Q711 397 695.5 372.5Q680 348 654.5 333.5Q629 319 599 319Q583 319 570.5 322.5Q558 326 536 336Q529 339 522 339Q511 339 507 321H482L502 448H528Q527 438 526.5 432.5Q526 427 526 426Q526 395 546.0 373.5Q566 352 594 352Q619 352 635.5 370.0Q652 388 652 412Q652 435 636.0 455.0Q620 475 603 488Q593 496 578.5 511.0Q564 526 553.0 545.5Q542 565 542 588Q542 632 571.0 658.5Q600 685 640 685Q672 685 688 679Q696 676 701.5 674.0Q707 672 711 672Q716 672 719 676L727 685ZM50 325V348Q70 348 79.5 358.0Q89 368 94 388L157 615Q161 628 161 640Q161 647 155 650Q151 652 143.5 654.0Q136 656 122 657V680H256Q433 680 433 533Q433 473 401.0 426.0Q369 379 314.0 352.0Q259 325 189 325ZM162 383Q159 371 159 367Q159 356 185 356Q272 356 315.0 407.5Q358 459 358 541Q358 649 265 649Q255 649 245.5 646.5Q236 644 231 642ZM425 396Q437 396 448.0 386.0Q459 376 459 361Q459 345 449.0 335.0Q439 325 425 325Q409 325 399.0 335.0Q389 345 389 361Q389 376 400.5 386.0Q412 396 425 396ZM754 392Q768 392 778.0 382.5Q788 373 788 357Q788 343 778.0 333.0Q768 323 754 323Q741 323 729.5 332.5Q718 342 718 357Q718 372 728.0 382.0Q738 392 754 392Z"/></g></svg>
