<svg xmlns="http://www.w3.org/2000/svg" viewBox="-45.8 -653.8 533.5 323.5"><g transform="scale(1 -1)"><path fill="currentColor" d="M18 366 88 561Q92 572 92 583Q92 595 83 595Q66 595 42 565Q19 536 2 483H-26Q3 566 40.0 600.0Q77 634 120 634Q140 634 151.5 625.0Q163 616 163 595Q177 612 198.0 623.0Q219 634 245 634Q264 634 278.5 624.5Q293 615 293 595Q310 617 333.0 625.5Q356 634 372 634Q393 634 406.5 626.0Q420 618 420 598Q420 591 418.0 581.0Q416 571 414 567L370 435Q367 426 364.5 417.0Q362 408 362 400Q362 385 374 385Q387 385 405 411Q414 424 424.0 441.0Q434 458 444 480L468 470Q441 409 413.5 379.5Q386 350 344 350Q316 350 300.0 362.5Q284 375 284 400Q284 414 290.0 435.5Q296 457 300 467L334 562Q339 577 339 581Q339 595 326 595Q314 595 305.0 582.0Q296 569 285 539L220 366H139L213 567Q215 577 215 581Q215 595 202 595Q183 595 172 564L100 366Z"/></g></svg>
