<svg xmlns="http://www.w3.org/2000/svg" viewBox="21.8 -880.2 386.4 761.4"><g transform="scale(1 -1)"><path fill="currentColor" d="M155 147 251 487Q230 468 203.5 460.0Q177 452 151 452Q108 452 79.0 475.0Q50 498 50 541Q50 569 69.5 588.5Q89 608 121 608Q150 608 168.5 589.5Q187 571 187 540Q187 518 177 501Q177 495 189 495Q230 495 267 541L319 731Q298 712 271.5 704.0Q245 696 219 696Q176 696 147.0 719.0Q118 742 118 785Q118 813 138.0 832.5Q158 852 189 852Q219 852 237.0 833.0Q255 814 255 784Q255 774 252.0 763.5Q249 753 245 745Q245 739 257 739Q312 739 362 825H380L191 147Z"/></g></svg>
