<svg xmlns="http://www.w3.org/2000/svg" viewBox="4.3 -1199.7 650.4 1234.4"><g transform="scale(1 -1)"><path fill="currentColor" d="M321 1154H347Q350 1117 363.5 1089.0Q377 1061 405.5 1031.0Q434 1001 480 956Q527 911 552.0 871.0Q577 831 586.0 793.5Q595 756 595 716Q595 672 583 628Q595 591 595 548Q595 531 592.5 512.0Q590 493 585 472Q609 441 609 374Q609 328 596.5 279.5Q584 231 558 193H542Q587 286 587 355Q587 418 551.5 466.5Q516 515 446 559L347 622V171Q347 129 318.5 92.5Q290 56 245.0 33.5Q200 11 152 11Q104 11 77.0 31.0Q50 51 50 99Q50 131 68.0 160.0Q86 189 115.0 212.0Q144 235 178.5 248.5Q213 262 247 262Q271 262 290.0 256.0Q309 250 321 236ZM351 972Q351 935 368 903Q379 882 401.0 859.0Q423 836 449 813Q481 784 513.5 747.0Q546 710 568 665Q571 683 571 699Q571 762 538 813Q504 865 453.0 902.5Q402 940 351 972ZM349 798Q352 750 376.0 712.5Q400 675 436 641L512 570Q533 551 547.0 534.0Q561 517 568 503Q569 511 569.0 516.0Q569 521 569 527Q569 678 349 798Z"/></g></svg>
