<svg xmlns="http://www.w3.org/2000/svg" viewBox="13.7 -645.3 246.6 305.6"><g transform="scale(1 -1)"><path fill="currentColor" d="M119 351Q76 351 50.5 369.0Q25 387 25 422Q25 444 35.0 454.0Q45 464 58 464Q88 464 88 434Q88 419 82 413Q75 407 75 402Q75 395 87.0 388.0Q99 381 118 381Q138 381 151.5 392.5Q165 404 165 421Q165 445 133 463Q102 482 81.5 502.0Q61 522 61 555Q61 590 89.5 612.0Q118 634 164 634Q201 634 225.0 616.5Q249 599 249 571Q249 541 219 541Q204 541 196.5 550.5Q189 560 189 570Q189 577 190 580Q191 583 191 586Q191 595 182.5 599.5Q174 604 163 604Q150 604 136.0 598.0Q122 592 122 575Q122 550 156 531Q191 511 210.0 490.0Q229 469 229 438Q229 393 197.5 372.0Q166 351 119 351Z"/></g></svg>
