<svg xmlns="http://www.w3.org/2000/svg" viewBox="38.1 -975.9 320.8 198.8"><g transform="scale(1 -1)"><path fill="currentColor" d="M277 849Q294 849 311.0 860.5Q328 872 340 885L347 893V860Q325 820 303.0 804.5Q281 789 259 789Q236 789 219.0 804.0Q202 819 189 838L173 861Q164 875 156.0 883.5Q148 892 143 896Q132 904 120 904Q106 904 90.5 894.0Q75 884 63.5 873.0Q52 862 50 859V893Q73 936 94.5 950.0Q116 964 138 964Q165 964 183 946Q194 936 205.5 920.5Q217 905 227 890Q238 873 251.0 861.0Q264 849 277 849Z"/></g></svg>
