<svg xmlns="http://www.w3.org/2000/svg" viewBox="34.0 -624.0 432.0 221.0"><g transform="scale(1 -1)"><path fill="currentColor" d="M432 419Q386 433 338.5 441.0Q291 449 253 449Q228 449 193.0 444.5Q158 440 124.5 433.5Q91 427 67 420L50 440L89 493Q109 519 136.5 545.5Q164 572 196.5 590.0Q229 608 263 608Q311 608 349.0 575.5Q387 543 414 499L450 439ZM412 451 384 495Q362 530 330.5 555.0Q299 580 263 580Q223 580 182.0 550.0Q141 520 89 452Q116 459 161.0 467.0Q206 475 253 475Q303 475 346.5 466.0Q390 457 412 451Z"/></g></svg>
