<svg xmlns="http://www.w3.org/2000/svg" viewBox="35.6 -696.4 388.8 388.8"><g transform="scale(1 -1)"><path fill="currentColor" d="M230 682Q280 682 320.5 657.5Q361 633 385.5 592.5Q410 552 410 502Q410 452 385.5 411.0Q361 370 320.0 346.0Q279 322 230 322Q181 322 140.0 346.5Q99 371 74.5 412.0Q50 453 50 502Q50 551 74.0 592.0Q98 633 139.0 657.5Q180 682 230 682ZM230 346Q273 346 308.0 367.5Q343 389 364.5 424.5Q386 460 386 502Q386 544 364.5 579.5Q343 615 307.5 636.5Q272 658 230 658Q188 658 152.5 636.5Q117 615 95.5 580.0Q74 545 74 502Q74 460 95.5 424.5Q117 389 152.5 367.5Q188 346 230 346ZM217 637H243V609Q280 605 306.0 578.5Q332 552 336 515H364V489H336Q332 453 305.5 427.5Q279 402 243 397V368H217V397Q181 402 155.0 427.5Q129 453 124 489H95V515H124Q128 552 154.0 578.5Q180 605 217 609ZM243 515H313Q309 542 289.5 562.0Q270 582 243 586ZM217 515V586Q190 582 170.5 561.5Q151 541 147 515ZM217 489H147Q152 463 171.5 444.0Q191 425 217 420ZM243 489V420Q269 424 288.5 443.5Q308 463 312 489Z"/></g></svg>
