<svg xmlns="http://www.w3.org/2000/svg" viewBox="30.5 0.5 527.0 187.0"><g transform="scale(1 -1)"><path fill="currentColor" d="M358 -20Q369 -20 376.0 -27.0Q383 -34 383 -45Q383 -69 358 -69Q348 -69 341.0 -62.0Q334 -55 334 -45Q334 -34 341.0 -27.0Q348 -20 358 -20ZM229 -20Q240 -20 247.0 -27.0Q254 -34 254 -45Q254 -69 229 -69Q219 -69 212.0 -62.0Q205 -55 205 -45Q205 -34 212.0 -27.0Q219 -20 229 -20ZM69 -39Q96 -67 132.5 -90.0Q169 -113 211.0 -127.0Q253 -141 294 -141Q335 -141 376.5 -127.5Q418 -114 455.0 -90.5Q492 -67 519 -39L538 -58Q485 -109 425.5 -138.5Q366 -168 294 -168Q222 -168 162.5 -139.0Q103 -110 50 -59Z"/></g></svg>
