<svg xmlns="http://www.w3.org/2000/svg" viewBox="24.3 -838.7 317.4 694.4"><g transform="scale(1 -1)"><path fill="currentColor" d="M215 459Q168 402 144.0 361.5Q120 321 120 287Q120 253 139.5 233.0Q159 213 190 213Q213 213 234.0 226.5Q255 240 255 266Q255 278 241 298Q226 319 226 334Q226 354 237.5 367.5Q249 381 267 381Q289 381 301.5 357.5Q314 334 314 303Q314 240 277.0 205.0Q240 170 183 170Q149 170 118.5 188.5Q88 207 69.0 239.5Q50 272 50 315Q50 363 68.5 403.0Q87 443 120 485L151 524Q196 582 221.5 627.5Q247 673 247 696Q247 733 223.0 751.5Q199 770 171 770Q148 770 129.5 756.0Q111 742 111 717Q111 712 113.5 705.0Q116 698 125 683Q131 673 135.5 664.0Q140 655 140 645Q140 628 128.5 615.0Q117 602 99 602Q79 602 65.5 625.0Q52 648 52 680Q52 717 70.0 747.0Q88 777 119.0 795.0Q150 813 189 813Q244 813 280.0 773.5Q316 734 316 668Q316 620 298.0 579.0Q280 538 246 497Z"/></g></svg>
