<svg xmlns="http://www.w3.org/2000/svg" viewBox="4.7 -1032.3 235.6 1223.6"><g transform="scale(1 -1)"><path fill="currentColor" d="M136 219Q136 237 115 256Q93 276 71.5 296.0Q50 316 50 338Q50 359 71 377Q93 396 114.5 415.0Q136 434 136 454Q136 471 113 491Q90 511 70.0 530.5Q50 550 50 572Q50 600 93 631Q136 662 136 688Q136 703 124 715Q117 721 110.5 727.5Q104 734 97 741L66 771Q50 787 50 806Q50 827 71 846Q84 858 99.0 870.5Q114 883 125.0 896.0Q136 909 136 921Q136 932 134.0 941.0Q132 950 125 957Q112 972 109 977L119 987Q122 987 134.0 978.5Q146 970 160.0 956.0Q174 942 184.5 926.5Q195 911 195 896Q195 866 151 836Q107 806 107 790Q107 771 126 752Q139 740 155.0 725.0Q171 710 183.0 694.0Q195 678 195 662Q195 640 175 623Q163 612 147.0 600.0Q131 588 119.0 576.5Q107 565 107 555Q107 537 129 516Q152 495 173.5 473.5Q195 452 195 428Q195 399 151 369Q107 339 107 321Q107 302 130 282Q153 261 174.0 240.5Q195 220 195 194Q195 162 152 135Q109 108 109 87Q109 69 119.0 48.5Q129 28 135 23Q155 24 169.0 27.5Q183 31 195 37L126 -146L50 37Q65 30 80.5 27.0Q96 24 111 23Q77 49 63 68Q50 88 50 104Q50 125 70 142Q83 153 98.5 165.5Q114 178 125.0 192.0Q136 206 136 219Z"/></g></svg>
