<svg xmlns="http://www.w3.org/2000/svg" viewBox="18.2 -761.8 858.6 523.6"><g transform="scale(1 -1)"><path fill="currentColor" d="M263 710Q220 710 181.0 694.0Q142 678 117.5 651.0Q93 624 93 589Q93 550 122 550Q142 550 152.0 568.5Q162 587 163 609H181V585Q181 548 162.0 519.0Q143 490 114 490Q87 490 68.5 510.0Q50 530 50 562Q50 609 81.0 647.0Q112 685 162.5 707.5Q213 730 269 730Q310 730 347.0 712.0Q384 694 407.5 663.5Q431 633 431 593Q431 574 416.5 557.5Q402 541 382 541Q328 541 298 623L316 630Q324 613 335.5 603.0Q347 593 357 593Q371 593 378.5 602.5Q386 612 386 626Q386 656 356.0 680.5Q326 705 285 709L250 633Q249 631 248.0 626.0Q247 621 247 617Q247 599 264 579Q281 560 300.5 534.0Q320 508 320 490Q320 476 312.5 461.5Q305 447 288 422L267 390Q304 387 336 367Q369 346 375 346Q378 346 382.5 347.5Q387 349 392 353L408 365Q405 376 405 384Q405 419 416.0 451.5Q427 484 447.5 504.5Q468 525 495 525Q517 525 529.5 511.0Q542 497 542 478Q542 447 520.0 425.0Q498 403 465 380L455 373Q462 347 473.0 335.5Q484 324 501 324Q515 324 535.0 336.0Q555 348 571 363Q569 374 568.5 379.0Q568 384 568 388Q568 436 592.0 470.5Q616 505 659 525Q608 618 460 650L464 667Q546 658 614.0 621.5Q682 585 722.5 529.0Q763 473 763 404Q763 371 749.0 340.5Q735 310 711.0 290.5Q687 271 657 271Q629 271 607.5 290.0Q586 309 577 339L524 302Q480 271 472 271Q441 271 413 342L343 284Q329 271 323 271Q316 271 316.0 278.5Q316 286 313 296Q311 304 307.0 311.5Q303 319 298 326Q288 343 277.0 353.5Q266 364 255 371Q180 271 148 271Q142 271 137.0 275.5Q132 280 132 291Q132 309 147.0 327.0Q162 345 184 356Q199 364 215.5 374.0Q232 384 245 396Q256 406 262.5 418.0Q269 430 269 449Q269 476 251 497Q234 516 216.0 539.0Q198 562 198 576Q198 584 203.0 595.0Q208 606 217 623ZM671 505Q645 490 630.5 461.5Q616 433 616 386Q616 351 629.5 326.5Q643 302 665 302Q683 302 693.5 322.0Q704 342 704 373Q704 450 671 505ZM462 405Q505 436 505 464Q505 475 498.0 482.5Q491 490 480 490Q446 490 446 431Q446 428 447.0 418.0Q448 408 450 396ZM808 344Q823 344 834.0 333.0Q845 322 845 307Q845 292 834.0 281.0Q823 270 808 270Q793 270 782.0 281.0Q771 292 771 307Q771 322 782.0 333.0Q793 344 808 344Z"/></g></svg>
