<svg xmlns="http://www.w3.org/2000/svg" viewBox="-10.4 -1580.4 679.7 1629.7"><g transform="scale(1 -1)"><path fill="currentColor" d="M583 628Q595 591 595 548Q595 531 592.5 512.0Q590 493 585 472Q609 441 609 374Q609 328 596.5 279.5Q584 231 558 193H542Q587 286 587 355Q587 418 551.5 466.5Q516 515 446 559L347 622V171Q347 129 318.5 92.5Q290 56 245.0 33.5Q200 11 152 11Q104 11 77.0 31.0Q50 51 50 99Q50 131 68.0 160.0Q86 189 115.0 212.0Q144 235 178.5 248.5Q213 262 247 262Q271 262 290.0 256.0Q309 250 321 236V1520H347Q350 1484 362.0 1458.0Q374 1432 401.5 1402.5Q429 1373 478 1325Q527 1278 552.0 1238.0Q577 1198 586.0 1160.0Q595 1122 595 1082Q595 1059 591.5 1036.5Q588 1014 580 985Q595 940 595 892Q595 865 592.0 845.0Q589 825 582 805Q588 783 591.5 761.0Q595 739 595 716Q595 672 583 628ZM351 1331Q351 1293 367 1264Q378 1245 399.5 1221.5Q421 1198 449 1172Q481 1141 514.5 1104.0Q548 1067 568 1024Q571 1042 571 1058Q571 1107 552.5 1146.0Q534 1185 502 1217Q471 1249 432.0 1276.5Q393 1304 351 1331ZM351 1148Q351 1083 407 1030Q454 986 484.5 954.0Q515 922 535.0 896.0Q555 870 568 841Q571 859 571 875Q571 924 552.5 963.0Q534 1002 502 1034Q471 1066 432.0 1093.5Q393 1121 351 1148ZM351 972Q351 935 368 903Q381 880 406.0 854.5Q431 829 460 802Q491 774 520.0 740.0Q549 706 568 665Q571 683 571 699Q571 762 538 813Q504 865 453.0 902.5Q402 940 351 972ZM349 798Q352 750 376.0 712.5Q400 675 436 641L512 570Q533 551 547.0 534.0Q561 517 568 503Q569 510 569.0 514.5Q569 519 569 527Q569 678 349 798Z"/></g></svg>
