<svg xmlns="http://www.w3.org/2000/svg" viewBox="14.1 -928.9 968.8 857.8"><g transform="scale(1 -1)"><path fill="currentColor" d="M50 893H947V107H50ZM431 660H566V795H431ZM603 660H738V795H603ZM87 660H222V795H87ZM775 660H910V795H775ZM259 660H394V795H259ZM603 488H738V623H603ZM775 488H910V623H775ZM431 488H566V623H431ZM87 488H222V623H87ZM259 488H394V623H259ZM87 316H222V451H87ZM431 316H566V451H431ZM775 316H910V451H775ZM259 316H394V451H259ZM603 316H738V451H603ZM259 144H394V279H259ZM603 144H738V279H603ZM87 144H222V279H87ZM431 144H566V279H431ZM775 144H910V279H775Z"/></g></svg>
