<svg xmlns="http://www.w3.org/2000/svg" viewBox="-104.6 -651.6 470.2 475.2"><g transform="scale(1 -1)"><path fill="currentColor" d="M3 483H-25Q13 565 48.0 599.5Q83 634 127 634Q153 634 165.5 623.5Q178 613 180 597Q191 608 212.0 621.0Q233 634 262 634Q307 634 327.5 604.5Q348 575 348 530Q348 486 326.0 444.5Q304 403 268.5 376.5Q233 350 192 350Q172 350 154.5 358.0Q137 366 126 386L80 255Q75 242 75 234Q75 225 92 225H135V194H-87V225H-47Q-28 225 -21.0 232.0Q-14 239 -7 257L102 559Q108 576 108 583Q108 596 97 596Q82 596 60.0 573.0Q38 550 19 513ZM147 421Q147 382 171 382Q187 382 203.0 403.0Q219 424 233.0 454.5Q247 485 255.5 516.0Q264 547 264 567Q264 600 241 600Q222 600 204.5 583.0Q187 566 174.5 538.5Q162 511 154.5 480.0Q147 449 147 421Z"/></g></svg>
