<svg xmlns="http://www.w3.org/2000/svg" viewBox="39.2 -647.8 290.5 290.5"><g transform="scale(1 -1)"><path fill="currentColor" d="M172 637H198V609Q235 605 261.0 578.5Q287 552 291 515H319V489H291Q287 453 260.5 427.5Q234 402 198 397V368H172V397Q137 402 110.5 427.5Q84 453 79 489H50V515H79Q83 552 109.0 578.5Q135 605 172 609ZM198 515H268Q264 542 244.5 562.0Q225 582 198 586ZM172 515V586Q145 582 125.5 561.5Q106 541 102 515ZM172 489H102Q107 463 126.5 444.0Q146 425 172 420ZM198 489V420Q224 424 243.5 443.5Q263 463 267 489Z"/></g></svg>
