<svg xmlns="http://www.w3.org/2000/svg" viewBox="-53.1 -1573.1 394.2 1433.2"><g transform="scale(1 -1)"><path fill="currentColor" d="M0 1520H26Q29 1485 41.0 1458.5Q53 1432 80.5 1402.0Q108 1372 157 1325Q206 1278 231.0 1238.0Q256 1198 265.0 1160.0Q274 1122 274 1082Q274 1059 270.5 1036.5Q267 1014 259 985Q267 963 270.5 939.5Q274 916 274 892Q274 865 271.0 845.0Q268 825 261 805Q267 783 270.5 761.0Q274 739 274 716Q274 694 271.5 672.0Q269 650 262 628Q269 609 271.5 589.0Q274 569 274 548Q274 512 264 472Q288 441 288 374Q288 328 275.5 279.5Q263 231 237 193H221Q266 286 266 355Q266 410 240 452Q223 481 196.0 506.5Q169 532 123.0 561.0Q77 590 0 629ZM30 1331Q30 1294 46 1264Q57 1245 79.0 1221.5Q101 1198 128 1172Q161 1141 194.0 1104.0Q227 1067 247 1024Q250 1042 250 1058Q250 1107 231.5 1146.0Q213 1185 182 1217Q151 1249 111.5 1276.5Q72 1304 30 1331ZM30 1148Q30 1083 86 1030Q108 1010 125.5 992.5Q143 975 158 960Q193 926 213.5 898.5Q234 871 247 841Q250 859 250 875Q250 924 231.5 963.0Q213 1002 182 1034Q151 1066 111.5 1093.5Q72 1121 30 1148ZM30 972Q30 934 47 903Q58 883 78.5 861.5Q99 840 124 817Q157 786 191.0 749.0Q225 712 247 665Q250 683 250 699Q250 762 217 813Q203 835 185.0 854.0Q167 873 147 890Q120 913 90.0 933.0Q60 953 30 972ZM28 798Q31 750 55.0 712.5Q79 675 115 641L191 570Q212 551 226.0 534.0Q240 517 247 503Q248 506 248 527Q248 678 28 798Z"/></g></svg>
