<svg xmlns="http://www.w3.org/2000/svg" viewBox="37.4 -303.6 340.2 339.2"><g transform="scale(1 -1)"><path fill="currentColor" d="M50 134Q50 176 72.0 212.0Q94 248 130.0 269.5Q166 291 207 291Q249 291 285.0 269.5Q321 248 343.0 212.5Q365 177 365 134Q365 93 343.0 57.0Q321 21 285.5 -1.0Q250 -23 207 -23Q165 -23 129.5 -1.0Q94 21 72.0 56.5Q50 92 50 134ZM205 160 280 235Q247 259 208 259Q167 259 132 233ZM231 134 306 58Q332 93 332 134Q332 174 306 209ZM181 135 107 208Q82 174 82 134Q82 94 106 61ZM206 110 132 35Q167 9 207 9Q249 9 281 34Z"/></g></svg>
