<svg xmlns="http://www.w3.org/2000/svg" viewBox="30.5 0.5 527.0 187.0"><g transform="scale(1 -1)"><path fill="currentColor" d="M294 -20Q305 -20 312.0 -27.0Q319 -34 319 -45Q319 -69 294 -69Q284 -69 277.0 -62.0Q270 -55 270 -45Q270 -34 277.0 -27.0Q284 -20 294 -20ZM408 -20Q419 -20 426.0 -27.0Q433 -34 433 -45Q433 -55 426.0 -62.0Q419 -69 408 -69Q398 -69 391.0 -62.0Q384 -55 384 -45Q384 -34 391.0 -27.0Q398 -20 408 -20ZM179 -20Q190 -20 197.0 -27.0Q204 -34 204 -45Q204 -55 197.0 -62.0Q190 -69 179 -69Q169 -69 162.0 -62.0Q155 -55 155 -45Q155 -34 162.0 -27.0Q169 -20 179 -20ZM69 -39Q96 -67 132.5 -90.0Q169 -113 211.0 -127.0Q253 -141 294 -141Q335 -141 376.5 -127.5Q418 -114 455.0 -90.5Q492 -67 519 -39L538 -58Q485 -109 425.5 -138.5Q366 -168 294 -168Q222 -168 162.5 -139.0Q103 -110 50 -59Z"/></g></svg>
