<svg xmlns="http://www.w3.org/2000/svg" viewBox="25.9 -711.1 651.2 416.2"><g transform="scale(1 -1)"><path fill="currentColor" d="M531 652Q524 651 518.0 650.5Q512 650 509 650V666L529 669Q545 672 556 679L570 687L576 676L537 552Q551 574 573.0 589.5Q595 605 613 605Q635 605 644.0 590.5Q653 576 653 559Q653 528 635.5 499.5Q618 471 590.5 452.5Q563 434 533 434Q504 434 491.0 445.0Q478 456 478 470Q478 484 490 521ZM120 501Q61 528 61 584Q61 625 95.5 653.5Q130 682 176 682Q224 682 256.0 658.5Q288 635 288 593Q288 567 274.0 552.0Q260 537 226 520Q257 508 278.5 485.0Q300 462 300 428Q300 396 282.5 371.5Q265 347 236.0 333.0Q207 319 173 319Q121 319 85.5 347.0Q50 375 50 418Q50 473 120 501ZM111 601Q111 575 134.0 554.5Q157 534 188 534Q205 534 223.0 552.5Q241 571 241 593Q241 623 221.5 638.5Q202 654 176 654Q148 654 129.5 639.0Q111 624 111 601ZM354 561Q358 571 358 572Q358 574 355 574Q351 574 341.0 564.0Q331 554 323 543L311 553Q326 576 343.5 589.5Q361 603 377 603Q386 603 391.0 597.0Q396 591 396 583Q396 579 395.0 574.0Q394 569 391 562L361 486Q357 477 357 468Q357 455 368 455Q385 455 402.5 472.5Q420 490 432.5 513.5Q445 537 445 553Q433 571 433 583Q433 589 437.0 597.0Q441 605 452 605Q460 605 466.5 598.0Q473 591 473 575Q473 545 454.5 512.0Q436 479 409.5 456.5Q383 434 358 434Q320 434 320 468Q320 476 323.0 485.0Q326 494 329 501ZM600 580Q587 580 567 561Q554 549 542.5 531.0Q531 513 524.0 496.0Q517 479 517 469Q517 455 533 455Q553 455 571.0 470.5Q589 486 601.0 510.0Q613 534 613 559Q613 580 600 580ZM248 414Q248 435 234.0 452.0Q220 469 200.0 479.0Q180 489 161 489Q152 489 137.5 478.0Q123 467 112.0 449.5Q101 432 101 412Q101 380 121.0 363.5Q141 347 173 347Q205 347 226.5 365.0Q248 383 248 414Z"/></g></svg>
