<svg xmlns="http://www.w3.org/2000/svg" viewBox="28.4 -789.6 371.1 582.1"><g transform="scale(1 -1)"><path fill="currentColor" d="M223 229V310Q177 314 137.5 341.5Q98 369 74.0 410.5Q50 452 50 499Q50 545 73.5 586.5Q97 628 136.5 655.0Q176 682 223 686V768H255V686Q327 680 377 625L349 599Q314 640 255 648V350Q283 353 306.0 366.0Q329 379 349 400L378 374Q353 348 321.5 331.0Q290 314 255 310V229ZM223 350V648Q188 644 157.5 623.0Q127 602 108.0 569.5Q89 537 89 499Q89 462 107.0 429.5Q125 397 155.5 375.5Q186 354 223 350Z"/></g></svg>
