<svg xmlns="http://www.w3.org/2000/svg" viewBox="28.0 -590.0 595.1 472.1"><g transform="scale(1 -1)"><path fill="currentColor" d="M243 381Q216 385 197.0 386.0Q178 387 146 387Q116 387 94.5 385.0Q73 383 50 379V557Q76 562 100.0 565.0Q124 568 146 568Q170 568 193.0 565.0Q216 562 243 557ZM279 362 379 463 480 362 379 262ZM243 161Q233 163 205.0 165.0Q177 167 146 167Q115 167 95.5 165.5Q76 164 50 159V337Q61 339 88.0 343.5Q115 348 146 348Q174 348 194.0 345.5Q214 343 243 337ZM400 240 500 341 601 240 500 140Z"/></g></svg>
