<svg xmlns="http://www.w3.org/2000/svg" viewBox="23.0 -866.0 569.1 730.1"><g transform="scale(1 -1)"><path fill="currentColor" d="M238 462Q147 507 99.5 560.5Q52 614 52 677Q52 718 72.5 755.0Q93 792 127.5 815.5Q162 839 204 839Q252 839 285.0 811.0Q318 783 318 739Q318 717 301.5 704.0Q285 691 265 691Q242 691 229.5 700.0Q217 709 212 724L203 752Q198 768 190.0 778.0Q182 788 165 788Q143 788 128.0 766.5Q113 745 113 720Q113 678 150 642Q187 607 300 560L482 833H536L343 540Q441 490 483.0 436.5Q525 383 525 323Q525 280 505.0 243.5Q485 207 450.0 185.0Q415 163 371 163Q320 163 290.5 191.5Q261 220 261 257Q261 280 275.0 294.0Q289 308 314 308Q343 308 354.5 293.5Q366 279 369 261Q372 243 380.0 228.5Q388 214 407 214Q434 214 450.0 233.0Q466 252 466 282Q466 345 384 388Q343 409 317.0 422.5Q291 436 280 442L103 167H50ZM516 636Q536 636 550.5 621.5Q565 607 565 587Q565 567 550.5 552.5Q536 538 516 538Q496 538 481.5 552.5Q467 567 467 587Q467 607 481.5 621.5Q496 636 516 636ZM103 462Q123 462 137.5 447.5Q152 433 152 413Q152 393 137.5 378.5Q123 364 103 364Q83 364 68.5 378.5Q54 393 54 413Q54 433 68.5 447.5Q83 462 103 462Z"/></g></svg>
