<svg xmlns="http://www.w3.org/2000/svg" viewBox="-45.5 -1375.5 379.0 1228.0"><g transform="scale(1 -1)"><path fill="currentColor" d="M0 1330H26Q29 1295 41.0 1268.5Q53 1242 80.5 1212.0Q108 1182 157 1135Q206 1089 231.0 1048.5Q256 1008 265.0 970.0Q274 932 274 892Q274 865 271.0 845.0Q268 825 261 805Q267 783 270.5 761.0Q274 739 274 716Q274 694 271.5 672.0Q269 650 262 628Q269 609 271.5 589.0Q274 569 274 548Q274 512 264 472Q288 441 288 374Q288 328 275.5 279.5Q263 231 237 193H221Q266 286 266 355Q266 391 253.0 424.5Q240 458 212 489Q156 551 0 634ZM30 1148Q30 1083 86 1030Q108 1010 125.5 992.5Q143 975 158 960Q193 926 213.5 898.5Q234 871 247 841Q250 859 250 875Q250 924 231.5 963.0Q213 1002 182 1034Q151 1066 111.5 1093.5Q72 1121 30 1148ZM30 972Q30 933 47 903Q58 884 77.5 863.0Q97 842 121 820Q156 789 190.5 750.5Q225 712 247 665Q250 683 250 699Q250 762 217 813Q198 842 173.0 866.0Q148 890 119 912Q97 929 75.0 943.5Q53 958 30 972ZM28 798Q31 750 55.0 712.5Q79 675 115 641L191 570Q212 551 226.0 534.0Q240 517 247 503Q248 506 248 527Q248 678 28 798Z"/></g></svg>
