<svg xmlns="http://www.w3.org/2000/svg" viewBox="5.1 -754.9 1212.8 756.8"><g transform="scale(1 -1)"><path fill="currentColor" d="M813 43Q642 77 509.0 134.0Q376 191 270.5 274.5Q165 358 76 470V43H50V710Q113 631 173.5 567.5Q234 504 292 454Q369 389 442.0 341.0Q515 293 598.5 259.0Q682 225 787 200V699Q825 706 843.5 708.0Q862 710 886 710Q909 710 922.5 709.0Q936 708 949.0 706.0Q962 704 980 699V557Q1009 562 1031.5 565.0Q1054 568 1076 568Q1105 568 1128.5 565.0Q1152 562 1173 557V381Q1168 382 1150.5 383.0Q1133 384 1112.0 385.5Q1091 387 1076 387Q1050 387 1029.5 385.5Q1009 384 980 379V521Q964 524 943.5 526.5Q923 529 886 529Q866 529 852.5 528.0Q839 527 813 523Z"/></g></svg>
