<svg xmlns="http://www.w3.org/2000/svg" viewBox="25.6 -487.4 657.7 362.7"><g transform="scale(1 -1)"><path fill="currentColor" d="M451 276Q435 279 423.0 280.0Q411 281 395.5 281.5Q380 282 354 282Q324 282 302.5 280.0Q281 278 258 274V149Q232 153 208.5 155.0Q185 157 154 157Q146 157 129.0 156.5Q112 156 94.0 155.0Q76 154 63.0 153.0Q50 152 50 151V327Q74 332 89.0 334.0Q104 336 118.5 337.0Q133 338 154 338Q177 338 204.5 335.0Q232 332 258 327V452Q284 457 308.0 460.0Q332 463 354 463Q378 463 401.0 460.0Q424 457 451 452V327Q466 330 496.0 334.0Q526 338 555 338Q576 338 589.5 337.0Q603 336 618.5 334.0Q634 332 659 327V149Q631 154 608.5 155.5Q586 157 555 157Q530 157 514.0 156.5Q498 156 484.5 155.0Q471 154 451 151Z"/></g></svg>
