<svg xmlns="http://www.w3.org/2000/svg" viewBox="34.9 -702.1 358.2 407.2"><g transform="scale(1 -1)"><path fill="currentColor" d="M79 400Q101 376 129.0 362.5Q157 349 189 349Q229 349 263.0 370.0Q297 391 318.0 425.0Q339 459 339 499Q339 539 318.0 573.0Q297 607 263.0 628.0Q229 649 189 649Q157 649 128.0 635.5Q99 622 79 599L51 625Q77 654 113.0 670.5Q149 687 189 687Q240 687 283.0 660.5Q326 634 352.0 591.5Q378 549 378 499Q378 449 351.5 406.0Q325 363 282.0 336.5Q239 310 189 310Q149 310 113.0 327.5Q77 345 50 374Z"/></g></svg>
