<svg xmlns="http://www.w3.org/2000/svg" viewBox="5.6 -1255.4 779.8 1198.8"><g transform="scale(1 -1)"><path fill="currentColor" d="M280 1070Q260 1081 248.0 1098.5Q236 1116 236 1139Q236 1171 261.0 1191.0Q286 1211 335 1211Q377 1211 403.0 1195.5Q429 1180 429 1148Q429 1133 417.5 1116.5Q406 1100 387 1088Q412 1076 425.5 1059.5Q439 1043 439 1016Q439 981 409.5 956.5Q380 932 334 932Q285 932 257.5 951.5Q230 971 230 1005Q230 1044 280 1070ZM364 1098Q379 1109 385.0 1121.5Q391 1134 391 1146Q391 1169 373.5 1180.0Q356 1191 336 1191Q313 1191 301.0 1181.5Q289 1172 289 1157Q289 1140 306.0 1126.0Q323 1112 339 1106ZM302 1058Q269 1036 269 1006Q269 981 288.0 966.5Q307 952 333 952Q351 952 367.5 962.0Q384 972 384 993Q384 1016 362.0 1029.0Q340 1042 302 1058ZM50 123Q216 231 288 301Q336 348 373.0 408.5Q410 469 431.5 536.0Q453 603 453 669Q453 728 435.0 773.5Q417 819 383.0 845.0Q349 871 302 871Q284 871 264.5 867.0Q245 863 224 855Q181 839 158.0 813.5Q135 788 135 765Q135 756 143.0 752.0Q151 748 158 748Q168 748 183 752Q190 754 196.5 755.0Q203 756 210 756Q248 756 272.0 733.5Q296 711 296 674Q296 638 266.0 612.0Q236 586 195 586Q146 586 111.0 617.0Q76 648 76 697Q76 756 109.0 802.0Q142 848 198.5 874.0Q255 900 324 900Q400 900 460.0 867.0Q520 834 555.5 776.5Q591 719 591 646Q591 551 538 464Q511 419 476.5 379.0Q442 339 389.0 297.5Q336 256 256.0 208.0Q176 160 57 101ZM686 809Q709 809 725.0 793.0Q741 777 741 754Q741 731 725.0 715.5Q709 700 686 700Q663 700 647.5 715.5Q632 731 632 754Q632 777 647.5 793.0Q663 809 686 809ZM686 589Q709 589 725.0 573.0Q741 557 741 534Q741 511 725.0 495.5Q709 480 686 480Q663 480 647.5 495.5Q632 511 632 534Q632 557 647.5 573.0Q663 589 686 589Z"/></g></svg>
