<svg xmlns="http://www.w3.org/2000/svg" viewBox="-8.4 -1263.4 656.9 1577.9"><g transform="scale(1 -1)"><path fill="currentColor" d="M155 -256 251 84Q230 65 203.5 57.0Q177 49 151 49Q108 49 79.0 72.0Q50 95 50 138Q50 165 70.0 185.0Q90 205 121 205Q150 205 168.5 186.5Q187 168 187 137Q187 115 177 98Q177 92 189 92Q230 92 267 138L319 328Q298 309 271.5 301.0Q245 293 219 293Q176 293 147.0 316.0Q118 339 118 382Q118 411 138.0 430.0Q158 449 189 449Q219 449 237.0 430.0Q255 411 255 381Q255 371 252.0 360.5Q249 350 245 342Q245 336 257 336Q298 336 334 381L390 582Q369 563 342.5 555.0Q316 547 290 547Q247 547 218.0 570.0Q189 593 189 636Q189 665 209.0 684.0Q229 703 260 703Q289 703 307.5 684.5Q326 666 326 635Q326 625 323.0 614.5Q320 604 316 596Q316 590 328 590Q368 590 405 635L460 834Q439 815 412.5 807.0Q386 799 360 799Q317 799 288.0 822.0Q259 845 259 888Q259 915 279.0 935.0Q299 955 330 955Q359 955 377.5 936.5Q396 918 396 887Q396 865 386 848Q386 842 398 842Q439 842 476 888L529 1084Q508 1065 481.5 1057.0Q455 1049 429 1049Q386 1049 357.0 1072.0Q328 1095 328 1138Q328 1166 348.0 1185.5Q368 1205 399 1205Q429 1205 447.0 1186.0Q465 1167 465 1137Q465 1127 462.0 1116.5Q459 1106 455 1098Q455 1092 467 1092Q522 1092 572 1178H590L191 -256Z"/></g></svg>
