<svg xmlns="http://www.w3.org/2000/svg" viewBox="15.8 -721.2 924.5 436.5"><g transform="scale(1 -1)"><path fill="currentColor" d="M493 439 535 555Q537 560 537.5 563.5Q538 567 538 568Q538 575 532 575Q524 575 512 560Q506 552 500.0 540.5Q494 529 489 514H472Q484 552 505.5 577.5Q527 603 554 603Q579 603 579 580Q587 590 600.5 596.5Q614 603 625 603Q649 603 649 578Q658 589 671.5 596.0Q685 603 699 603Q724 603 724 582Q724 578 722.0 570.5Q720 563 718 556L690 471Q689 469 689 465Q689 456 696 456Q704 456 719.0 473.5Q734 491 744 523L784 652Q781 651 773.0 650.5Q765 650 762 650V666L782 669Q798 672 809 679L823 687L829 676L790 552Q804 574 826.0 589.5Q848 605 866 605Q889 605 897.5 590.5Q906 576 906 559Q906 527 888.0 498.5Q870 470 842.5 452.0Q815 434 786 434Q760 434 747.0 442.5Q734 451 731 463Q710 434 683 434Q670 434 661.0 440.5Q652 447 652 461Q652 465 653.0 470.5Q654 476 656 482L680 552Q682 557 682.5 560.5Q683 564 683 566Q683 575 673 575Q653 575 645 552L607 439H569L607 552Q610 563 610 566Q610 575 600 575Q580 575 572 550L532 439ZM250 494 253 682Q310 670 360 670Q403 670 451 682Q444 639 417.5 625.0Q391 611 344 611Q327 611 311.5 613.5Q296 616 279 620L277 527Q311 558 358 558Q409 558 437.5 527.0Q466 496 466 442Q466 388 432.0 353.5Q398 319 341 319Q315 319 291.0 329.0Q267 339 252.0 357.0Q237 375 237 399Q237 424 250.5 437.5Q264 451 282 451Q302 451 314.0 438.5Q326 426 326 406Q326 393 316 382Q305 369 305 366Q305 358 315.0 352.5Q325 347 341 347Q406 347 406 443Q406 488 385.0 509.5Q364 531 338 531Q320 531 302.0 521.5Q284 512 270 494ZM58 326V352Q89 352 99.5 363.0Q110 374 110 405V628L65 593L50 613L119 676H160V402Q160 376 174.5 364.0Q189 352 212 352V326ZM853 580Q841 580 821 562Q807 550 795.5 531.5Q784 513 777.0 496.0Q770 479 770 469Q770 455 786 455Q806 455 824.0 471.0Q842 487 854.0 511.0Q866 535 866 559Q866 580 853 580Z"/></g></svg>
