<svg xmlns="http://www.w3.org/2000/svg" viewBox="23.7 -1026.3 710.6 404.6"><g transform="scale(1 -1)"><path fill="currentColor" d="M673 648Q671 698 646.0 743.0Q621 788 579.5 823.0Q538 858 486.0 878.0Q434 898 378 898Q324 898 272.5 879.0Q221 860 179.0 825.5Q137 791 111.0 746.0Q85 701 83 648H50Q57 720 83.0 783.5Q109 847 152.0 896.0Q195 945 252.0 972.5Q309 1000 378 1000Q447 1000 505.5 971.5Q564 943 607.5 894.0Q651 845 677.0 781.5Q703 718 708 648ZM378 648Q353 648 337.0 662.0Q321 676 321 699Q321 719 337.5 732.5Q354 746 378 746Q401 746 417.0 731.5Q433 717 433 699Q433 676 417.0 662.0Q401 648 378 648Z"/></g></svg>
