<svg xmlns="http://www.w3.org/2000/svg" viewBox="11.6 -993.4 477.7 1035.7"><g transform="scale(1 -1)"><path fill="currentColor" d="M155 -4 251 336Q230 317 203.5 309.0Q177 301 151 301Q108 301 79.0 324.0Q50 347 50 390Q50 417 70.0 437.0Q90 457 121 457Q150 457 168.5 438.5Q187 420 187 389Q187 367 177 350Q177 344 189 344Q230 344 267 390L319 580Q298 561 271.5 553.0Q245 545 219 545Q176 545 147.0 568.0Q118 591 118 634Q118 663 138.0 682.0Q158 701 189 701Q219 701 237.0 682.0Q255 663 255 633Q255 623 252.0 612.5Q249 602 245 594Q245 588 257 588Q298 588 334 633L390 834Q369 815 342.5 807.0Q316 799 290 799Q247 799 218.0 822.0Q189 845 189 888Q189 917 209.0 936.0Q229 955 260 955Q290 955 308.0 936.0Q326 917 326 887Q326 877 323.0 866.5Q320 856 316 848Q316 842 328 842Q382 842 433 928H451L191 -4Z"/></g></svg>
