<svg xmlns="http://www.w3.org/2000/svg" viewBox="1.6 -1129.4 567.9 1307.9"><g transform="scale(1 -1)"><path fill="currentColor" d="M155 -130 251 210Q230 191 203.5 183.0Q177 175 151 175Q108 175 79.0 198.0Q50 221 50 264Q50 291 70.0 311.0Q90 331 121 331Q150 331 168.5 312.5Q187 294 187 263Q187 241 177 224Q177 218 189 218Q230 218 267 264L319 454Q298 435 271.5 427.0Q245 419 219 419Q176 419 147.0 442.0Q118 465 118 508Q118 537 138.0 556.0Q158 575 189 575Q219 575 237.0 556.0Q255 537 255 507Q255 497 252.0 486.5Q249 476 245 468Q245 462 257 462Q298 462 334 507L390 708Q369 689 342.5 681.0Q316 673 290 673Q247 673 218.0 696.0Q189 719 189 762Q189 791 209.0 810.0Q229 829 260 829Q290 829 308.0 810.0Q326 791 326 761Q326 751 323.0 740.5Q320 730 316 722Q316 716 328 716Q368 716 405 761L460 960Q439 941 412.5 933.0Q386 925 360 925Q317 925 288.0 948.0Q259 971 259 1014Q259 1041 279.0 1061.0Q299 1081 330 1081Q359 1081 377.5 1062.5Q396 1044 396 1013Q396 991 386 974Q386 968 398 968Q453 968 503 1054H521L191 -130Z"/></g></svg>
