<svg xmlns="http://www.w3.org/2000/svg" viewBox="12.9 -706.1 308.2 731.2"><g transform="scale(1 -1)"><path fill="currentColor" d="M294 583Q284 555 273.0 502.5Q262 450 254.0 383.0Q246 316 246 242Q246 166 251.5 105.0Q257 44 264 6Q246 4 234.5 3.0Q223 2 196 2Q158 2 119.0 3.5Q80 5 52 7Q46 35 43.0 76.0Q40 117 40 153Q40 163 40.0 170.5Q40 178 41 188Q71 184 120.0 179.0Q169 174 214 172Q212 200 210.5 230.0Q209 260 209 291Q155 383 131.0 469.5Q107 556 107 647V679L185 643Q178 618 174.5 592.0Q171 566 171 539Q171 490 181.0 440.5Q191 391 209 345Q209 422 212.0 488.0Q215 554 224 623Z"/></g></svg>
