<svg xmlns="http://www.w3.org/2000/svg" viewBox="29.6 -774.4 462.8 550.8"><g transform="scale(1 -1)"><path fill="currentColor" d="M282 754Q329 754 371.5 734.5Q414 715 441.0 681.5Q468 648 468 606Q468 569 443.0 542.5Q418 516 380 516Q346 516 324.0 535.5Q302 555 302 589Q302 615 317.0 633.0Q332 651 353 661Q364 666 380.0 669.5Q396 673 396 679Q396 695 368.0 709.0Q340 723 308 723Q267 723 238.0 704.0Q209 685 194.5 639.0Q180 593 180 511V433Q180 396 191.5 360.5Q203 325 230.0 302.0Q257 279 301 279Q351 279 392.0 324.0Q433 369 445 445H472Q468 387 442.0 341.5Q416 296 372.0 270.0Q328 244 271 244Q208 244 158.0 280.5Q108 317 79.0 378.0Q50 439 50 514Q50 562 68.5 605.0Q87 648 119.0 681.5Q151 715 193.0 734.5Q235 754 282 754Z"/></g></svg>
