<svg xmlns="http://www.w3.org/2000/svg" viewBox="-32.7 -1041.7 351.4 883.4"><g transform="scale(1 -1)"><path fill="currentColor" d="M0 1009H26Q30 974 38.5 950.5Q47 927 60 907Q77 882 98.5 865.5Q120 849 146 823Q176 794 205.5 757.0Q235 720 254.5 674.5Q274 629 274 573Q274 551 271.0 527.5Q268 504 260 478Q286 440 286 368Q286 320 273.5 272.5Q261 225 235 191H219Q266 283 266 351Q266 416 220 471Q190 508 150.5 537.0Q111 566 71.5 585.5Q32 605 0 613ZM32 823Q32 798 38.5 773.5Q45 749 56 727Q64 713 87.5 683.0Q111 653 145 619Q181 585 211.5 552.0Q242 519 247 505Q251 520 251 547Q251 623 202.0 690.0Q153 757 32 823Z"/></g></svg>
