<svg xmlns="http://www.w3.org/2000/svg" viewBox="32.0 -771.0 486.0 439.0"><g transform="scale(1 -1)"><path fill="currentColor" d="M319 634Q351 634 361.0 625.5Q371 617 371 595Q390 616 409.5 625.0Q429 634 450 634Q473 634 486.5 621.0Q500 608 500 586Q500 569 489.0 553.0Q478 537 459 537Q445 537 436.0 544.0Q427 551 427 564Q427 573 431 580Q434 586 434 589Q434 599 422 599Q412 599 398.5 588.0Q385 577 377 554L308 366H226L237 396L211 380Q193 369 172.0 359.5Q151 350 129 350Q99 350 79.5 361.5Q60 373 60 399Q60 407 64.5 422.0Q69 437 76 459L124 601H50L61 634H134L156 704L237 753H257L216 634ZM296 561Q298 567 299.0 573.0Q300 579 300 583Q300 590 295 595Q291 601 269 601H206L145 421Q144 418 143.5 415.0Q143 412 143 409Q143 391 161 391Q169 391 185.5 399.0Q202 407 221.0 419.0Q240 431 253 442Z"/></g></svg>
