<svg xmlns="http://www.w3.org/2000/svg" viewBox="27.6 -748.4 444.7 576.7"><g transform="scale(1 -1)"><path fill="currentColor" d="M451 540Q449 540 423 543Q398 546 354 546Q323 546 303.0 544.5Q283 543 257 538V716Q287 722 307.0 724.5Q327 727 354 727Q392 727 413.5 724.0Q435 721 451 716ZM451 320Q441 322 420.0 324.0Q399 326 354 326Q320 326 302.5 324.5Q285 323 257 318V193Q229 198 208.5 199.5Q188 201 153 201Q123 201 91.5 199.0Q60 197 49 195V371Q79 376 100.5 379.0Q122 382 153 382Q174 382 193.5 380.0Q213 378 257 371V496Q283 501 307.5 504.0Q332 507 354 507Q377 507 400.0 504.0Q423 501 451 496Z"/></g></svg>
