<svg xmlns="http://www.w3.org/2000/svg" viewBox="-19.0 -844.0 401.9 511.9"><g transform="scale(1 -1)"><path fill="currentColor" d="M364 441Q333 394 297.0 372.5Q261 351 208 351Q142 351 95.5 381.5Q49 412 24.5 465.5Q0 519 0 588Q0 655 28.5 708.5Q57 762 105.5 793.5Q154 825 214 825Q255 825 289.0 809.0Q323 793 343.5 768.5Q364 744 364 718Q364 677 319 677Q295 677 281.0 689.0Q267 701 265 731Q260 793 197 793Q143 793 111.0 747.0Q79 701 79 630Q79 574 98.0 528.0Q117 482 150.5 454.5Q184 427 226 427Q273 427 304.5 445.5Q336 464 364 498Z"/></g></svg>
