<svg xmlns="http://www.w3.org/2000/svg" viewBox="9.1 -1052.9 755.8 1103.8"><g transform="scale(1 -1)"><path fill="currentColor" d="M226 0V1000H263V510Q281 519 301.0 546.0Q321 573 339.0 608.5Q357 644 370.0 679.5Q383 715 386 742Q396 673 427.0 633.5Q458 594 503 594Q548 594 570 631Q593 668 593 775Q593 818 590.5 848.5Q588 879 582 898Q569 942 541.0 960.5Q513 979 470 979Q447 979 434.0 969.5Q421 960 421 951Q421 944 428.0 934.0Q435 924 443 914Q460 894 460 877Q460 853 442.5 833.5Q425 814 392 814Q362 814 342.5 835.5Q323 857 323 887Q323 924 347.5 952.0Q372 980 411.5 996.0Q451 1012 497 1012Q561 1012 612.0 982.0Q663 952 693.5 899.0Q724 846 724 777Q724 734 714.5 698.0Q705 662 685 633Q658 595 616.0 573.5Q574 552 527 552Q505 552 481.5 557.5Q458 563 437 574L390 500L437 426Q460 435 484.0 440.0Q508 445 532 445Q587 445 630.5 414.0Q674 383 699.0 332.0Q724 281 724 219Q724 157 694.0 104.5Q664 52 613.0 21.0Q562 -10 497 -10Q413 -10 368.0 23.5Q323 57 323 115Q323 145 342.5 166.5Q362 188 392 188Q425 188 442.5 168.5Q460 149 460 125Q460 106 443 88Q434 78 427.5 69.0Q421 60 421 52Q421 40 434.0 31.5Q447 23 470 23Q532 23 563.5 68.5Q595 114 595 219Q595 311 574.0 358.5Q553 406 503 406Q457 406 427.0 367.0Q397 328 388 260Q379 309 360.0 355.0Q341 401 316.0 437.0Q291 473 263 492V0ZM50 0V1000H167V0Z"/></g></svg>
