<svg xmlns="http://www.w3.org/2000/svg" viewBox="-29.3 -783.3 791.6 634.6"><g transform="scale(1 -1)"><path fill="currentColor" d="M733 436 618 296 364 545Q340 569 316.0 576.5Q292 584 272 584Q240 584 210.0 567.0Q180 550 161.0 518.0Q142 486 142 442Q142 398 164.5 362.0Q187 326 222.5 305.5Q258 285 296 285Q323 285 343.5 292.0Q364 299 379 306L409 320Q423 326 437 326Q454 326 461.0 316.5Q468 307 468 299Q468 285 440 254Q412 223 367.5 200.5Q323 178 267 178Q189 178 128.5 209.5Q68 241 34.0 299.0Q0 357 0 434Q0 526 37.0 598.0Q74 670 140.5 712.0Q207 754 294 754Q365 754 411.5 733.0Q458 712 494 676Z"/></g></svg>
