<svg xmlns="http://www.w3.org/2000/svg" viewBox="10.0 -1040.0 241.0 1080.0"><g transform="scale(1 -1)"><path fill="currentColor" d="M53 509Q84 511 107.0 533.0Q130 555 130 595Q130 615 125.0 634.0Q120 653 108 671Q85 706 67.5 743.0Q50 780 50 835Q50 879 71.5 913.0Q93 947 129.0 969.5Q165 992 207 1000L211 976Q167 954 139.0 917.0Q111 880 111 833Q111 807 119.5 778.5Q128 750 144 718Q176 654 176 602Q176 577 168 558Q163 545 152.0 531.5Q141 518 131.0 509.0Q121 500 117 500Q138 490 157.0 461.5Q176 433 176 398Q176 345 144 283Q111 220 111 167Q111 120 139.0 83.5Q167 47 211 24L207 0Q165 8 129.0 30.5Q93 53 71.5 87.5Q50 122 50 165Q50 210 60.5 240.5Q71 271 90 298Q105 320 117.5 347.0Q130 374 130 405Q130 445 107.5 466.0Q85 487 53 491Z"/></g></svg>
