<svg xmlns="http://www.w3.org/2000/svg" viewBox="23.7 -26.3 710.6 406.6"><g transform="scale(1 -1)"><path fill="currentColor" d="M83 0Q86 -54 112.0 -99.5Q138 -145 180.0 -179.5Q222 -214 274.0 -233.0Q326 -252 380 -252Q433 -252 484.0 -232.5Q535 -213 577.0 -178.5Q619 -144 644.5 -98.5Q670 -53 673 0H708Q702 -72 675.5 -136.0Q649 -200 606.0 -249.0Q563 -298 506.0 -326.0Q449 -354 380 -354Q293 -354 221.5 -308.0Q150 -262 104.5 -182.0Q59 -102 50 0ZM378 0Q405 0 420.0 -15.0Q435 -30 435 -51Q435 -71 419.0 -85.5Q403 -100 378 -100Q357 -100 341.0 -85.5Q325 -71 325 -51Q325 -30 340.0 -15.0Q355 0 378 0Z"/></g></svg>
