<svg xmlns="http://www.w3.org/2000/svg" viewBox="38.1 -280.9 320.8 293.8"><g transform="scale(1 -1)"><path fill="currentColor" d="M159 -1Q111 -1 80.5 21.5Q50 44 50 90Q50 141 78.5 181.5Q107 222 153.0 245.5Q199 269 251 269Q295 269 321.0 245.5Q347 222 347 179Q347 130 321.0 89.0Q295 48 252.5 23.5Q210 -1 159 -1ZM77 66Q77 56 84.5 48.0Q92 40 105 40Q140 40 192 69Q227 89 255.5 113.5Q284 138 301.0 162.5Q318 187 318 204Q318 215 312.5 222.5Q307 230 293 230Q274 230 247.0 218.0Q220 206 190.5 187.0Q161 168 135.0 145.5Q109 123 93.0 102.0Q77 81 77 66Z"/></g></svg>
