<svg xmlns="http://www.w3.org/2000/svg" viewBox="10.1 -1048.9 628.8 1077.8"><g transform="scale(1 -1)"><path fill="currentColor" d="M325 1009H351Q357 968 366.0 936.5Q375 905 392.0 875.5Q409 846 437 812Q467 777 487.0 753.5Q507 730 527 704Q564 658 581.5 609.5Q599 561 599 511Q599 407 511 259H495Q523 318 545.5 377.5Q568 437 568 491Q568 545 540 602Q512 659 461.5 698.0Q411 737 351 741V175Q351 132 323.5 94.5Q296 57 251.0 34.0Q206 11 152 11Q109 11 79.5 33.0Q50 55 50 98Q50 130 67.0 159.5Q84 189 112.0 212.0Q140 235 173.5 248.0Q207 261 241 261Q299 261 325 238Z"/></g></svg>
