<svg xmlns="http://www.w3.org/2000/svg" viewBox="15.6 -802.4 740.7 927.7"><g transform="scale(1 -1)"><path fill="currentColor" d="M200 768H302V729H200ZM340 768H442V729H340ZM480 768H582V729H480ZM620 768H722V729H620ZM50 768H152V729H50ZM526 511V654H560V540H597V511ZM436 511V654H470V540H507V511ZM408 559Q408 509 360 509Q313 509 313 559V654H347V560Q347 539 361 539Q374 539 374 560V654H408ZM284 511H244L207 600H206Q207 588 207.5 579.0Q208 570 208 564V511H176V654H215L252 567H253Q252 578 252.0 586.5Q252 595 252 602V654H284ZM50 550V652H89V550ZM683 550V652H722V550ZM683 370V472H722V370ZM50 370V472H89V370ZM412 327Q412 253 357 253Q303 253 303 327Q303 400 357 400Q412 400 412 327ZM602 255H533V398H602V369H567V343H599V314H567V284H602ZM481 255H447V368H421V398H506V368H481ZM278 255H238L201 344H200Q201 332 201.5 323.0Q202 314 202 308V255H170V398H209L246 311H247Q246 322 246.0 330.5Q246 339 246 346V398H278ZM338 327Q338 283 357 283Q376 283 376 327Q376 371 357 371Q338 371 338 327ZM50 181V283H89V181ZM683 181V283H722V181ZM366 0H297V143H366V114H331V88H363V59H331V29H366ZM265 0H231V59H200V0H166V142H200V88H231V142H265ZM460 0 455 27H424L418 0H382L416 142H461L496 0ZM606 74Q606 39 590.0 19.5Q574 0 545 0H509V142H548Q606 142 606 74ZM444 89Q443 97 441.5 104.0Q440 111 439 117Q438 112 437.5 104.5Q437 97 435 89L429 57H449ZM571 73Q571 95 565.0 104.0Q559 113 547 113H543V29H545Q571 29 571 73ZM50 1V103H89V1ZM683 1V103H722V1ZM50 -52H152V-91H50ZM620 -52H722V-91H620ZM480 -52H582V-91H480ZM340 -52H442V-91H340ZM200 -52H302V-91H200Z"/></g></svg>
