<svg xmlns="http://www.w3.org/2000/svg" viewBox="-9.1 -646.1 327.2 292.2"><g transform="scale(1 -1)"><path fill="currentColor" d="M3 523Q31 582 63.0 608.0Q95 634 134 634Q177 634 177 595Q197 616 216.5 625.0Q236 634 256 634Q279 634 292.5 621.0Q306 608 306 586Q306 569 295.5 553.0Q285 537 265 537Q251 537 242.0 544.0Q233 551 233 564Q233 573 237 580Q240 586 240 589Q240 599 228 599Q218 599 204.5 588.0Q191 577 183 554L114 366H32L102 561Q104 567 105.0 573.0Q106 579 106 583Q106 595 97 595Q84 595 66 577Q49 559 32 523Z"/></g></svg>
