<svg xmlns="http://www.w3.org/2000/svg" viewBox="35.6 -688.4 389.9 378.9"><g transform="scale(1 -1)"><path fill="currentColor" d="M130 633Q154 633 162 616Q167 605 169.5 590.0Q172 575 173 567Q174 558 181.0 552.5Q188 547 196 547Q203 547 212.5 553.0Q222 559 222 572Q222 581 218.0 588.0Q214 595 202 608Q188 622 188 637Q188 651 200.0 662.5Q212 674 232 674Q247 674 260.0 663.0Q273 652 273 635Q273 624 266.5 614.5Q260 605 254 598Q248 591 243.0 584.0Q238 577 238 571Q238 565 242.5 558.5Q247 552 263 543Q290 546 290 582Q290 631 331 631Q347 631 358.5 620.5Q370 610 370 592Q370 576 357.5 564.5Q345 553 325 553Q306 553 295.0 546.0Q284 539 284 525Q284 518 290.5 511.0Q297 504 307 504Q315 504 326.5 513.0Q338 522 348 531Q358 541 374 541Q390 541 400.5 527.5Q411 514 411 500Q411 481 398.5 468.5Q386 456 376 456Q368 456 357.5 462.0Q347 468 339 475Q333 480 324.0 485.0Q315 490 306 490Q284 490 284 470Q284 457 302.0 450.0Q320 443 339 441Q352 440 361.0 430.5Q370 421 370 404Q370 386 357.0 374.5Q344 363 330 363Q314 363 302.0 377.5Q290 392 290 418Q290 430 283.0 440.5Q276 451 262 451Q251 451 243.5 441.0Q236 431 236 423Q236 419 243.5 408.5Q251 398 257 390Q264 382 267.5 375.0Q271 368 271 357Q271 341 258.0 332.5Q245 324 228 324Q209 324 198.0 336.5Q187 349 187 356Q187 372 206 391Q213 398 218.5 406.0Q224 414 224 426Q224 451 203 451Q181 451 176.0 437.0Q171 423 171 408Q171 382 152 370Q143 364 131 364Q117 364 103.0 374.5Q89 385 89 406Q89 445 144 445Q155 445 165.0 452.5Q175 460 175 470Q175 479 168.5 484.5Q162 490 154 490Q136 490 115 470Q102 458 85 458Q70 458 60.0 471.0Q50 484 50 500Q50 517 61.5 528.0Q73 539 87 539Q104 539 123 523Q131 516 139.0 511.0Q147 506 154 506Q162 506 169.5 512.0Q177 518 177 525Q177 553 138 553Q113 553 99 564Q93 569 90.5 577.0Q88 585 88 592Q88 606 99 617Q106 624 113.5 628.5Q121 633 130 633ZM232 469Q243 469 252.0 478.0Q261 487 261 500Q261 514 252.0 521.5Q243 529 232 529Q222 529 211.0 522.0Q200 515 200 498Q200 485 210.5 477.0Q221 469 232 469Z"/></g></svg>
