<svg xmlns="http://www.w3.org/2000/svg" viewBox="9.3 -940.7 772.4 1099.4"><g transform="scale(1 -1)"><path fill="currentColor" d="M50 123Q216 231 288 301Q336 348 373.0 408.5Q410 469 431.5 536.0Q453 603 453 669Q453 728 435.0 773.5Q417 819 383.0 845.0Q349 871 302 871Q284 871 264.5 867.0Q245 863 224 855Q181 839 158.0 813.5Q135 788 135 765Q135 756 143.0 752.0Q151 748 158 748Q168 748 183 752Q190 754 196.5 755.0Q203 756 210 756Q248 756 272.0 733.5Q296 711 296 674Q296 638 266.0 612.0Q236 586 195 586Q146 586 111.0 617.0Q76 648 76 697Q76 756 109.0 802.0Q142 848 198.5 874.0Q255 900 324 900Q400 900 460.0 867.0Q520 834 555.5 776.5Q591 719 591 646Q591 551 538 464Q511 419 476.5 379.0Q442 339 389.0 297.5Q336 256 256.0 208.0Q176 160 57 101ZM686 809Q709 809 725.0 793.0Q741 777 741 754Q741 731 725.0 715.5Q709 700 686 700Q663 700 647.5 715.5Q632 731 632 754Q632 777 647.5 793.0Q663 809 686 809ZM686 589Q709 589 725.0 573.0Q741 557 741 534Q741 511 725.0 495.5Q709 480 686 480Q663 480 647.5 495.5Q632 511 632 534Q632 557 647.5 573.0Q663 589 686 589ZM280 20Q260 31 248.0 48.5Q236 66 236 89Q236 121 261.0 141.0Q286 161 335 161Q377 161 403.0 145.5Q429 130 429 98Q429 83 417.5 66.5Q406 50 387 38Q412 26 425.5 9.5Q439 -7 439 -34Q439 -69 409.0 -93.5Q379 -118 334 -118Q287 -118 258.5 -98.5Q230 -79 230 -45Q230 -6 280 20ZM364 48Q379 59 385.0 71.5Q391 84 391 96Q391 119 373.5 130.0Q356 141 336 141Q313 141 301.0 131.5Q289 122 289 107Q289 91 305.0 77.0Q321 63 343 56ZM302 8Q269 -14 269 -44Q269 -69 288.0 -83.5Q307 -98 333 -98Q351 -98 367.5 -88.0Q384 -78 384 -57Q384 -34 362.0 -21.0Q340 -8 302 8Z"/></g></svg>
