<svg xmlns="http://www.w3.org/2000/svg" viewBox="22.0 -878.0 750.0 756.0"><g transform="scale(1 -1)"><path fill="currentColor" d="M612 200V205Q612 220 615 238Q617 250 617.0 259.0Q617 268 617 280Q617 297 607.0 309.0Q597 321 565 321Q559 321 553.0 321.0Q547 321 540 320Q533 319 526.0 318.5Q519 318 511 318Q474 318 460.0 333.0Q446 348 446 366Q446 376 447.0 384.5Q448 393 449 404Q451 413 451.0 423.0Q451 433 451 445Q451 460 442.0 473.5Q433 487 399 487Q394 487 387.5 487.0Q381 487 373 486Q366 485 357.5 484.5Q349 484 340 484H331Q309 484 295.5 497.5Q282 511 282 532Q282 555 284.0 576.0Q286 597 286 611Q286 628 275.0 640.0Q264 652 247 652Q242 652 225.0 652.0Q208 652 190.0 651.5Q172 651 164 651Q143 651 129.5 664.0Q116 677 116 697Q116 707 116.5 716.0Q117 725 118 736Q120 745 120.0 755.5Q120 766 120 776Q120 802 100.0 814.5Q80 827 50 827V842Q79 850 105 850Q145 850 163.5 835.5Q182 821 182 795Q182 784 181.5 773.5Q181 763 179 752Q176 739 175.0 729.5Q174 720 174 712Q174 697 183.5 690.5Q193 684 206.0 682.5Q219 681 229 681H292Q318 681 333.0 667.5Q348 654 348 631Q348 613 346.0 601.5Q344 590 342.0 578.5Q340 567 340 548Q340 533 350.0 525.0Q360 517 375 517H444Q484 517 499.0 501.0Q514 485 514 465Q514 443 510 423Q508 412 506.5 402.5Q505 393 505 384Q505 366 515.5 358.5Q526 351 542 351Q552 351 559.5 351.0Q567 351 575 352Q583 353 589.0 353.0Q595 353 605 353Q637 353 658.0 341.0Q679 329 679 300Q679 290 678.0 280.0Q677 270 675 261Q673 251 671.5 242.0Q670 233 670 225V223Q670 207 681.5 196.0Q693 185 709.0 179.5Q725 174 736 172L744 171V158Q737 154 721.0 152.0Q705 150 697 150H691Q646 150 629.0 164.5Q612 179 612 200Z"/></g></svg>
