<svg xmlns="http://www.w3.org/2000/svg" viewBox="-9.6 -693.6 349.2 718.2"><g transform="scale(1 -1)"><path fill="currentColor" d="M71 667Q106 665 151.0 658.5Q196 652 239 645L164 484Q129 489 89.0 491.5Q49 494 17 494Q20 518 29.5 550.0Q39 582 50.5 613.5Q62 645 71 667ZM313 452Q291 394 277.5 326.5Q264 259 264 191Q264 151 268.5 112.0Q273 73 283 37L207 2Q206 16 205.5 31.0Q205 46 205 60Q206 121 214.5 179.0Q223 237 236 289Q202 298 165.0 305.0Q128 312 98 315Q105 340 117.0 372.5Q129 405 142.0 436.0Q155 467 164 484Q196 480 236.5 472.0Q277 464 313 452Z"/></g></svg>
