<svg xmlns="http://www.w3.org/2000/svg" viewBox="23.6 -753.4 476.8 712.8"><g transform="scale(1 -1)"><path fill="currentColor" d="M276 705Q291 715 316.0 721.0Q341 727 375 727Q410 727 436.0 720.5Q462 714 474 706V545Q448 551 424.5 553.5Q401 556 375 556Q335 556 312.0 545.0Q289 534 289 502Q289 471 310.5 459.5Q332 448 375 448Q401 448 424.5 450.5Q448 453 474 459V298Q461 289 434.0 283.0Q407 277 375 277Q337 277 312.0 284.5Q287 292 276 299ZM217 407Q197 410 181.5 411.5Q166 413 144 413Q106 413 84.5 410.5Q63 408 50 405V583Q79 588 101.0 591.0Q123 594 144 594Q170 594 195.5 590.5Q221 587 243 583V67H217Z"/></g></svg>
